<?xml version="1.0" encoding="utf-8" standalone="no"?>
<!DOCTYPE svg PUBLIC "-//W3C//DTD SVG 1.1//EN"
  "http://www.w3.org/Graphics/SVG/1.1/DTD/svg11.dtd">
<svg xmlns:xlink="http://www.w3.org/1999/xlink" width="400.06375pt" height="296.46825pt" viewBox="0 0 400.06375 296.46825" xmlns="http://www.w3.org/2000/svg" version="1.1">
 <metadata>
  <rdf:RDF xmlns:dc="http://purl.org/dc/elements/1.1/" xmlns:cc="http://creativecommons.org/ns#" xmlns:rdf="http://www.w3.org/1999/02/22-rdf-syntax-ns#">
   <cc:Work>
    <dc:type rdf:resource="http://purl.org/dc/dcmitype/StillImage"/>
    <dc:date>2023-11-23T09:05:34.873659</dc:date>
    <dc:format>image/svg+xml</dc:format>
    <dc:creator>
     <cc:Agent>
      <dc:title>Matplotlib v3.5.2, https://matplotlib.org/</dc:title>
     </cc:Agent>
    </dc:creator>
   </cc:Work>
  </rdf:RDF>
 </metadata>
 <defs>
  <style type="text/css">*{stroke-linejoin: round; stroke-linecap: butt}</style>
 </defs>
 <g id="figure_1">
  <g id="patch_1">
   <path d="M 0 296.46825 
L 400.06375 296.46825 
L 400.06375 0 
L 0 0 
z
" style="fill: #ffffff"/>
  </g>
  <g id="axes_1">
   <g id="patch_2">
    <path d="M 42.94375 266.112 
L 400.06375 266.112 
L 400.06375 -0 
L 42.94375 -0 
z
" style="fill: #ffffff"/>
   </g>
   <g id="patch_3">
    <path d="M 56.679135 266.112 
L 56.679135 255.76751 
L 72.560673 255.76751 
L 72.560673 233.44102 
L 88.442212 233.44102 
L 88.442212 200.805255 
L 104.32375 200.805255 
L 104.32375 168.495232 
L 120.205288 168.495232 
L 120.205288 147.198788 
L 136.086827 147.198788 
L 136.086827 135.436883 
L 151.968365 135.436883 
L 151.968365 12.672 
L 167.849904 12.672 
L 167.849904 154.078975 
L 183.731442 154.078975 
L 183.731442 168.112265 
L 199.612981 168.112265 
L 199.612981 185.341343 
L 215.494519 185.341343 
L 215.494519 199.590328 
L 231.376058 199.590328 
L 231.376058 212.1974 
L 247.257596 212.1974 
L 247.257596 187.485074 
L 263.139135 187.485074 
L 263.139135 238.767332 
L 279.020673 238.767332 
L 279.020673 244.225701 
L 294.902212 244.225701 
L 294.902212 249.59163 
L 310.78375 249.59163 
L 310.78375 253.535742 
L 326.665288 253.535742 
L 326.665288 256.801959 
L 342.546827 256.801959 
L 342.546827 258.85325 
L 358.428365 258.85325 
L 358.428365 256.845978 
L 374.309904 256.845978 
L 374.309904 262.880998 
L 390.191442 262.880998 
L 390.191442 263.875829 
L 406.072981 263.875829 
L 406.072981 264.346834 
L 421.954519 264.346834 
L 421.954519 264.765015 
L 437.836058 264.765015 
L 437.836058 265.042336 
L 453.717596 265.042336 
L 453.717596 264.716594 
L 469.599135 264.716594 
L 469.599135 265.596976 
L 485.480673 265.596976 
L 485.480673 265.69822 
L 501.362212 265.69822 
L 501.362212 265.680613 
L 517.24375 265.680613 
L 517.24375 265.724632 
L 533.125288 265.724632 
L 533.125288 265.825876 
L 549.006827 265.825876 
L 549.006827 265.878699 
L 564.888365 265.878699 
L 564.888365 265.663005 
L 580.769904 265.663005 
L 580.769904 265.944727 
L 596.651442 265.944727 
L 596.651442 265.953531 
L 612.532981 265.953531 
L 612.532981 265.957933 
L 628.414519 265.957933 
L 628.414519 265.988747 
L 644.296058 265.988747 
L 644.296058 266.059177 
L 660.177596 266.059177 
L 660.177596 265.957933 
L 676.059135 265.957933 
L 676.059135 266.028364 
L 691.940673 266.028364 
L 691.940673 266.081187 
L 707.822212 266.081187 
L 707.822212 266.015158 
L 723.70375 266.015158 
L 723.70375 266.067981 
L 739.585288 266.067981 
L 739.585288 266.063579 
L 755.466827 266.063579 
L 755.466827 266.032766 
L 771.348365 266.032766 
L 771.348365 266.059177 
L 787.229904 266.059177 
L 787.229904 266.063579 
L 803.111442 266.063579 
L 803.111442 266.085589 
L 818.992981 266.085589 
L 818.992981 266.085589 
L 834.874519 266.085589 
L 834.874519 266.045971 
L 850.756058 266.045971 
L 850.756058 266.085589 
L 866.637596 266.085589 
L 866.637596 266.059177 
L 882.519135 266.059177 
L 882.519135 266.067981 
L 898.400673 266.067981 
L 898.400673 266.094392 
L 914.282212 266.094392 
L 914.282212 266.059177 
L 930.16375 266.059177 
L 930.16375 266.072383 
L 946.045288 266.072383 
L 946.045288 266.098794 
L 961.926827 266.098794 
L 961.926827 266.054775 
L 977.808365 266.054775 
L 977.808365 266.081187 
L 993.689904 266.081187 
L 993.689904 266.072383 
L 1009.571442 266.072383 
L 1009.571442 266.094392 
L 1025.452981 266.094392 
L 1025.452981 266.103196 
L 1041.334519 266.103196 
L 1041.334519 266.072383 
L 1057.216058 266.072383 
L 1057.216058 266.103196 
L 1073.097596 266.103196 
L 1073.097596 266.059177 
L 1088.979135 266.059177 
L 1088.979135 266.094392 
L 1104.860673 266.094392 
L 1104.860673 266.098794 
L 1120.742212 266.098794 
L 1120.742212 266.094392 
L 1136.62375 266.094392 
L 1136.62375 266.107598 
L 1152.505288 266.107598 
L 1152.505288 266.08999 
L 1168.386827 266.08999 
L 1168.386827 266.094392 
L 1184.268365 266.094392 
L 1184.268365 266.107598 
L 1200.149904 266.107598 
L 1200.149904 266.098794 
L 1216.031442 266.098794 
L 1216.031442 266.103196 
L 1231.912981 266.103196 
L 1231.912981 266.094392 
L 1247.794519 266.094392 
L 1247.794519 266.103196 
L 1263.676058 266.103196 
L 1263.676058 266.094392 
L 1279.557596 266.094392 
L 1279.557596 266.107598 
L 1295.439135 266.107598 
L 1295.439135 266.094392 
L 1311.320673 266.094392 
L 1311.320673 266.098794 
L 1327.202212 266.098794 
L 1327.202212 266.103196 
L 1343.08375 266.103196 
L 1343.08375 266.103196 
L 1358.965288 266.103196 
L 1358.965288 266.107598 
L 1374.846827 266.107598 
L 1374.846827 266.107598 
L 1390.728365 266.107598 
L 1390.728365 266.098794 
L 1406.609904 266.098794 
L 1406.609904 266.094392 
L 1422.491442 266.094392 
L 1422.491442 266.107598 
L 1438.372981 266.107598 
L 1438.372981 266.103196 
L 1454.254519 266.103196 
L 1454.254519 266.107598 
L 1470.136058 266.107598 
L 1470.136058 266.08999 
L 1486.017596 266.08999 
L 1486.017596 266.085589 
L 1501.899135 266.085589 
L 1501.899135 266.107598 
L 1517.780673 266.107598 
L 1517.780673 266.098794 
L 1533.662212 266.098794 
L 1533.662212 266.107598 
L 1549.54375 266.107598 
L 1549.54375 266.107598 
L 1565.425288 266.107598 
L 1565.425288 266.103196 
L 1581.306827 266.103196 
L 1581.306827 266.08999 
L 1597.188365 266.08999 
L 1597.188365 266.103196 
L 1613.069904 266.103196 
L 1613.069904 266.094392 
L 1628.951442 266.094392 
L 1628.951442 266.094392 
L 1644.832981 266.094392 
L 1644.832981 266.112 
L 1660.714519 266.112 
L 1660.714519 266.112 
L 1676.596058 266.112 
L 1676.596058 266.103196 
L 1692.477596 266.103196 
L 1692.477596 266.098794 
L 1708.359135 266.098794 
L 1708.359135 266.107598 
L 1724.240673 266.107598 
L 1724.240673 266.103196 
L 1740.122212 266.103196 
L 1740.122212 266.112 
L 1756.00375 266.112 
L 1756.00375 266.112 
L 1771.885288 266.112 
L 1771.885288 266.098794 
L 1787.766827 266.098794 
L 1787.766827 266.112 
L 1803.648365 266.112 
L 1803.648365 266.094392 
L 1819.529904 266.094392 
L 1819.529904 266.103196 
L 1835.411442 266.103196 
L 1835.411442 266.098794 
L 1851.292981 266.098794 
L 1851.292981 266.107598 
L 1867.174519 266.107598 
L 1867.174519 266.112 
L 1883.056058 266.112 
L 1883.056058 266.103196 
L 1898.937596 266.103196 
L 1898.937596 266.103196 
L 1914.819135 266.103196 
L 1914.819135 266.107598 
L 1930.700673 266.107598 
L 1930.700673 266.107598 
L 1946.582212 266.107598 
L 1946.582212 266.103196 
L 1962.46375 266.103196 
L 1962.46375 266.098794 
L 1978.345288 266.098794 
L 1978.345288 266.094392 
L 1994.226827 266.094392 
L 1994.226827 266.103196 
L 2010.108365 266.103196 
L 2010.108365 266.112 
L 2025.989904 266.112 
L 2025.989904 266.103196 
L 2041.871442 266.103196 
L 2041.871442 266.112 
L 2057.752981 266.112 
L 2057.752981 266.107598 
L 2073.634519 266.107598 
L 2073.634519 266.112 
L 2089.516058 266.112 
L 2089.516058 266.112 
L 2105.397596 266.112 
L 2105.397596 266.112 
L 2121.279135 266.112 
L 2121.279135 266.107598 
L 2137.160673 266.107598 
L 2137.160673 266.103196 
L 2153.042212 266.103196 
L 2153.042212 266.098794 
L 2168.92375 266.098794 
L 2168.92375 266.103196 
L 2184.805288 266.103196 
L 2184.805288 266.103196 
L 2200.686827 266.103196 
L 2200.686827 266.112 
L 2216.568365 266.112 
L 2216.568365 266.107598 
L 2232.449904 266.107598 
L 2232.449904 266.112 
L 2248.331442 266.112 
L 2248.331442 266.107598 
L 2264.212981 266.107598 
L 2264.212981 266.103196 
L 2280.094519 266.103196 
L 2280.094519 266.094392 
L 2295.976058 266.094392 
L 2295.976058 266.112 
L 2311.857596 266.112 
L 2311.857596 266.103196 
L 2327.739135 266.103196 
L 2327.739135 266.103196 
L 2343.620673 266.103196 
L 2343.620673 266.107598 
L 2359.502212 266.107598 
L 2359.502212 266.112 
L 2375.38375 266.112 
L 2375.38375 266.107598 
L 2391.265288 266.107598 
L 2391.265288 266.103196 
L 2407.146827 266.103196 
L 2407.146827 266.107598 
L 2423.028365 266.107598 
L 2423.028365 266.112 
L 2438.909904 266.112 
L 2438.909904 266.094392 
L 2454.791442 266.094392 
L 2454.791442 266.107598 
L 2470.672981 266.107598 
L 2470.672981 266.112 
L 2486.554519 266.112 
L 2486.554519 266.098794 
L 2502.436058 266.098794 
L 2502.436058 266.112 
L 2518.317596 266.112 
L 2518.317596 266.103196 
L 2534.199135 266.103196 
L 2534.199135 266.112 
L 2550.080673 266.112 
L 2550.080673 266.103196 
L 2565.962212 266.103196 
L 2565.962212 266.107598 
L 2581.84375 266.107598 
L 2581.84375 266.107598 
L 2597.725288 266.107598 
L 2597.725288 266.107598 
L 2613.606827 266.107598 
L 2613.606827 266.107598 
L 2629.488365 266.107598 
L 2629.488365 266.112 
L 2645.369904 266.112 
L 2645.369904 266.107598 
L 2661.251442 266.107598 
L 2661.251442 266.103196 
L 2677.132981 266.103196 
L 2677.132981 266.107598 
L 2693.014519 266.107598 
L 2693.014519 266.112 
L 2708.896058 266.112 
L 2708.896058 266.112 
L 2724.777596 266.112 
L 2724.777596 266.112 
L 2740.659135 266.112 
L 2740.659135 266.103196 
L 2756.540673 266.103196 
L 2756.540673 266.112 
L 2772.422212 266.112 
L 2772.422212 266.112 
L 2788.30375 266.112 
L 2788.30375 266.103196 
L 2804.185288 266.103196 
L 2804.185288 266.107598 
L 2820.066827 266.107598 
L 2820.066827 266.107598 
L 2835.948365 266.107598 
L 2835.948365 266.107598 
L 2851.829904 266.107598 
L 2851.829904 266.112 
L 2867.711442 266.112 
L 2867.711442 266.103196 
L 2883.592981 266.103196 
L 2883.592981 266.112 
L 2899.474519 266.112 
L 2899.474519 266.08999 
L 2915.356058 266.08999 
L 2915.356058 266.094392 
L 2931.237596 266.094392 
L 2931.237596 266.112 
L 2947.119135 266.112 
L 2947.119135 266.112 
L 2963.000673 266.112 
L 2963.000673 266.107598 
L 2978.882212 266.107598 
L 2978.882212 266.103196 
L 2994.76375 266.103196 
L 2994.76375 266.107598 
L 3010.645288 266.107598 
L 3010.645288 266.107598 
L 3026.526827 266.107598 
L 3026.526827 266.107598 
L 3042.408365 266.107598 
L 3042.408365 266.112 
L 3058.289904 266.112 
L 3058.289904 266.112 
L 3074.171442 266.112 
L 3074.171442 266.107598 
L 3090.052981 266.107598 
L 3090.052981 266.112 
L 3105.934519 266.112 
L 3105.934519 266.107598 
L 3121.816058 266.107598 
L 3121.816058 266.112 
L 3137.697596 266.112 
L 3137.697596 266.107598 
L 3153.579135 266.107598 
L 3153.579135 266.103196 
L 3169.460673 266.103196 
L 3169.460673 266.098794 
L 3185.342212 266.098794 
L 3185.342212 266.112 
L 3201.22375 266.112 
L 3201.22375 266.107598 
L 3217.105288 266.107598 
L 3217.105288 266.107598 
L 3232.986827 266.107598 
L 3232.986827 266.112 
L 3248.868365 266.112 
L 3248.868365 266.112 
L 3264.749904 266.112 
L 3264.749904 266.112 
L 3280.631442 266.112 
L 3280.631442 266.107598 
L 3296.512981 266.107598 
L 3296.512981 266.103196 
L 3312.394519 266.103196 
L 3312.394519 266.112 
L 3328.276058 266.112 
L 3328.276058 266.107598 
L 3344.157596 266.107598 
L 3344.157596 266.112 
L 3360.039135 266.112 
L 3360.039135 266.107598 
L 3375.920673 266.107598 
L 3375.920673 266.112 
L 3391.802212 266.112 
L 3391.802212 266.112 
L 3407.68375 266.112 
L 3407.68375 266.107598 
L 3423.565288 266.107598 
L 3423.565288 266.107598 
L 3439.446827 266.107598 
L 3439.446827 266.112 
L 3455.328365 266.112 
L 3455.328365 266.112 
L 3471.209904 266.112 
L 3471.209904 266.112 
L 3487.091442 266.112 
L 3487.091442 266.107598 
L 3502.972981 266.107598 
L 3502.972981 266.103196 
L 3518.854519 266.103196 
L 3518.854519 266.112 
L 3534.736058 266.112 
L 3534.736058 266.112 
L 3550.617596 266.112 
L 3550.617596 266.107598 
L 3566.499135 266.107598 
L 3566.499135 266.107598 
L 3582.380673 266.107598 
L 3582.380673 266.112 
L 3598.262212 266.112 
L 3598.262212 266.107598 
L 3614.14375 266.107598 
L 3614.14375 266.107598 
L 3630.025288 266.107598 
L 3630.025288 266.107598 
L 3645.906827 266.107598 
L 3645.906827 266.107598 
L 3661.788365 266.107598 
L 3661.788365 266.112 
L 3677.669904 266.112 
L 3677.669904 266.112 
L 3693.551442 266.112 
L 3693.551442 266.107598 
L 3709.432981 266.107598 
L 3709.432981 266.098794 
L 3725.314519 266.098794 
L 3725.314519 266.103196 
L 3741.196058 266.103196 
L 3741.196058 266.112 
L 3757.077596 266.112 
L 3757.077596 266.112 
L 3772.959135 266.112 
L 3772.959135 266.112 
L 3788.840673 266.112 
L 3788.840673 266.112 
L 3804.722212 266.112 
L 3804.722212 266.112 
L 3820.60375 266.112 
L 3820.60375 266.107598 
L 3836.485288 266.107598 
L 3836.485288 266.107598 
L 3852.366827 266.107598 
L 3852.366827 266.107598 
L 3868.248365 266.107598 
L 3868.248365 266.103196 
L 3884.129904 266.103196 
L 3884.129904 266.112 
L 3900.011442 266.112 
L 3900.011442 266.107598 
L 3915.892981 266.107598 
L 3915.892981 266.107598 
L 3931.774519 266.107598 
L 3931.774519 266.112 
L 3947.656058 266.112 
L 3947.656058 266.112 
L 3963.537596 266.112 
L 3963.537596 266.112 
L 3979.419135 266.112 
L 3979.419135 266.107598 
L 3995.300673 266.107598 
L 3995.300673 266.098794 
L 4011.182212 266.098794 
L 4011.182212 266.107598 
L 4027.06375 266.107598 
L 4027.06375 266.112 
L 4042.945288 266.112 
L 4042.945288 266.107598 
L 4058.826827 266.107598 
L 4058.826827 266.107598 
L 4074.708365 266.107598 
L 4074.708365 266.112 
L 4090.589904 266.112 
L 4090.589904 266.112 
L 4106.471442 266.112 
L 4106.471442 266.103196 
L 4122.352981 266.103196 
L 4122.352981 266.103196 
L 4138.234519 266.103196 
L 4138.234519 266.103196 
L 4154.116058 266.103196 
L 4154.116058 266.112 
L 4169.997596 266.112 
L 4169.997596 266.107598 
L 4185.879135 266.107598 
L 4185.879135 266.107598 
L 4201.760673 266.107598 
L 4201.760673 266.107598 
L 4217.642212 266.107598 
L 4217.642212 266.103196 
L 4233.52375 266.103196 
L 4233.52375 266.103196 
L 4249.405288 266.103196 
L 4249.405288 266.107598 
L 4265.286827 266.107598 
L 4265.286827 266.107598 
L 4281.168365 266.107598 
L 4281.168365 266.112 
L 4297.049904 266.112 
L 4297.049904 266.112 
L 4312.931442 266.112 
L 4312.931442 266.098794 
L 4328.812981 266.098794 
L 4328.812981 266.094392 
L 4344.694519 266.094392 
L 4344.694519 266.112 
L 4360.576058 266.112 
L 4360.576058 266.107598 
L 4376.457596 266.107598 
L 4376.457596 266.112 
L 4392.339135 266.112 
L 4392.339135 266.08999 
L 4408.220673 266.08999 
L 4408.220673 266.107598 
L 4424.102212 266.107598 
L 4424.102212 266.08999 
L 4439.98375 266.08999 
L 4439.98375 266.103196 
L 4455.865288 266.103196 
L 4455.865288 266.112 
L 4471.746827 266.112 
L 4471.746827 266.103196 
L 4487.628365 266.103196 
L 4487.628365 266.112 
L 4503.509904 266.112 
L 4503.509904 266.094392 
L 4519.391442 266.094392 
L 4519.391442 266.098794 
L 4535.272981 266.098794 
L 4535.272981 266.112 
L 4551.154519 266.112 
L 4551.154519 266.112 
L 4567.036058 266.112 
L 4567.036058 266.098794 
L 4582.917596 266.098794 
L 4582.917596 266.107598 
L 4598.799135 266.107598 
L 4598.799135 266.107598 
L 4614.680673 266.107598 
L 4614.680673 266.107598 
L 4630.562212 266.107598 
L 4630.562212 266.107598 
L 4646.44375 266.107598 
L 4646.44375 266.112 
L 4662.325288 266.112 
L 4662.325288 266.112 
L 4678.206827 266.112 
L 4678.206827 266.112 
L 4694.088365 266.112 
L 4694.088365 266.107598 
L 4709.969904 266.107598 
L 4709.969904 266.112 
L 4725.851442 266.112 
L 4725.851442 266.103196 
L 4741.732981 266.103196 
L 4741.732981 266.112 
L 4757.614519 266.112 
L 4757.614519 266.107598 
L 4773.496058 266.107598 
L 4773.496058 266.107598 
L 4789.377596 266.107598 
L 4789.377596 266.107598 
L 4805.259135 266.107598 
L 4805.259135 266.112 
L 4821.140673 266.112 
L 4821.140673 266.098794 
L 4837.022212 266.098794 
L 4837.022212 266.112 
L 4852.90375 266.112 
L 4852.90375 266.112 
L 4868.785288 266.112 
L 4868.785288 266.103196 
L 4884.666827 266.103196 
L 4884.666827 266.112 
L 4900.548365 266.112 
L 4900.548365 266.107598 
L 4916.429904 266.107598 
L 4916.429904 266.112 
L 4932.311442 266.112 
L 4932.311442 266.103196 
L 4948.192981 266.103196 
L 4948.192981 266.107598 
L 4964.074519 266.107598 
L 4964.074519 266.107598 
L 4979.956058 266.107598 
L 4979.956058 266.107598 
L 4995.837596 266.107598 
L 4995.837596 266.103196 
L 5011.719135 266.103196 
L 5011.719135 266.112 
L 5027.600673 266.112 
L 5027.600673 266.107598 
L 5043.482212 266.107598 
L 5043.482212 266.103196 
L 5059.36375 266.103196 
L 5059.36375 266.112 
L 5075.245288 266.112 
L 5075.245288 266.107598 
L 5091.126827 266.107598 
L 5091.126827 266.107598 
L 5107.008365 266.107598 
L 5107.008365 266.112 
L 5122.889904 266.112 
L 5122.889904 266.103196 
L 5138.771442 266.103196 
L 5138.771442 266.098794 
L 5154.652981 266.098794 
L 5154.652981 266.112 
L 5170.534519 266.112 
L 5170.534519 266.112 
L 5186.416058 266.112 
L 5186.416058 266.112 
L 5202.297596 266.112 
L 5202.297596 266.112 
L 5218.179135 266.112 
L 5218.179135 266.112 
L 5234.060673 266.112 
L 5234.060673 266.107598 
L 5249.942212 266.107598 
L 5249.942212 266.112 
L 5265.82375 266.112 
L 5265.82375 266.107598 
L 5281.705288 266.107598 
L 5281.705288 266.112 
L 5297.586827 266.112 
L 5297.586827 266.103196 
L 5313.468365 266.103196 
L 5313.468365 266.112 
L 5329.349904 266.112 
L 5329.349904 266.103196 
L 5345.231442 266.103196 
L 5345.231442 266.112 
L 5361.112981 266.112 
L 5361.112981 266.107598 
L 5376.994519 266.107598 
L 5376.994519 266.112 
L 5392.876058 266.112 
L 5392.876058 266.112 
L 5408.757596 266.112 
L 5408.757596 266.112 
L 5424.639135 266.112 
L 5424.639135 266.112 
L 5440.520673 266.112 
L 5440.520673 266.112 
L 5456.402212 266.112 
L 5456.402212 266.112 
L 5472.28375 266.112 
L 5472.28375 266.112 
L 5488.165288 266.112 
L 5488.165288 266.112 
L 5504.046827 266.112 
L 5504.046827 266.107598 
L 5519.928365 266.107598 
L 5519.928365 266.107598 
L 5535.809904 266.107598 
L 5535.809904 266.094392 
L 5551.691442 266.094392 
L 5551.691442 266.112 
L 5567.572981 266.112 
L 5567.572981 266.112 
L 5583.454519 266.112 
L 5583.454519 266.103196 
L 5599.336058 266.103196 
L 5599.336058 266.112 
L 5615.217596 266.112 
L 5615.217596 266.112 
L 5631.099135 266.112 
L 5631.099135 266.112 
L 5646.980673 266.112 
L 5646.980673 266.107598 
L 5662.862212 266.107598 
L 5662.862212 266.112 
L 5678.74375 266.112 
L 5678.74375 266.107598 
L 5694.625288 266.107598 
L 5694.625288 266.103196 
L 5710.506827 266.103196 
L 5710.506827 266.103196 
L 5726.388365 266.103196 
L 5726.388365 266.112 
L 5742.269904 266.112 
L 5742.269904 266.08999 
L 5758.151442 266.08999 
L 5758.151442 266.107598 
L 5774.032981 266.107598 
L 5774.032981 266.103196 
L 5789.914519 266.103196 
L 5789.914519 266.107598 
L 5805.796058 266.107598 
L 5805.796058 266.107598 
L 5821.677596 266.107598 
L 5821.677596 266.112 
L 5837.559135 266.112 
L 5837.559135 266.098794 
L 5853.440673 266.098794 
L 5853.440673 266.107598 
L 5869.322212 266.107598 
L 5869.322212 266.112 
L 5885.20375 266.112 
L 5885.20375 266.103196 
L 5901.085288 266.103196 
L 5901.085288 266.112 
L 5916.966827 266.112 
L 5916.966827 266.112 
L 5932.848365 266.112 
L 5932.848365 266.103196 
L 5948.729904 266.103196 
L 5948.729904 266.112 
L 5964.611442 266.112 
L 5964.611442 266.112 
L 5980.492981 266.112 
L 5980.492981 266.112 
L 5996.374519 266.112 
L 5996.374519 266.098794 
L 6012.256058 266.098794 
L 6012.256058 266.103196 
L 6028.137596 266.103196 
L 6028.137596 266.107598 
L 6044.019135 266.107598 
L 6044.019135 266.08999 
L 6059.900673 266.08999 
L 6059.900673 266.107598 
L 6075.782212 266.107598 
L 6075.782212 266.103196 
L 6091.66375 266.103196 
L 6091.66375 266.112 
L 6107.545288 266.112 
L 6107.545288 266.112 
L 6123.426827 266.112 
L 6123.426827 266.103196 
L 6139.308365 266.103196 
L 6139.308365 266.112 
L 6155.189904 266.112 
L 6155.189904 266.103196 
L 6171.071442 266.103196 
L 6171.071442 266.107598 
L 6186.952981 266.107598 
L 6186.952981 266.112 
L 6202.834519 266.112 
L 6202.834519 266.103196 
L 6218.716058 266.103196 
L 6218.716058 266.112 
L 6234.597596 266.112 
L 6234.597596 266.112 
L 6250.479135 266.112 
L 6250.479135 266.112 
L 6266.360673 266.112 
L 6266.360673 266.107598 
L 6282.242212 266.107598 
L 6282.242212 266.112 
L 6298.12375 266.112 
L 6298.12375 266.103196 
L 6314.005288 266.103196 
L 6314.005288 266.107598 
L 6329.886827 266.107598 
L 6329.886827 266.107598 
L 6345.768365 266.107598 
L 6345.768365 266.107598 
L 6361.649904 266.107598 
L 6361.649904 266.107598 
L 6377.531442 266.107598 
L 6377.531442 266.112 
L 6393.412981 266.112 
L 6393.412981 266.098794 
L 6409.294519 266.098794 
L 6409.294519 266.107598 
L 6425.176058 266.107598 
L 6425.176058 266.107598 
L 6441.057596 266.107598 
L 6441.057596 266.112 
L 6456.939135 266.112 
L 6456.939135 266.112 
L 6472.820673 266.112 
L 6472.820673 266.107598 
L 6488.702212 266.107598 
L 6488.702212 266.112 
L 6504.58375 266.112 
L 6504.58375 266.103196 
L 6520.465288 266.103196 
L 6520.465288 266.112 
L 6536.346827 266.112 
L 6536.346827 266.107598 
L 6552.228365 266.107598 
L 6552.228365 266.112 
L 6568.109904 266.112 
L 6568.109904 266.107598 
L 6583.991442 266.107598 
L 6583.991442 266.107598 
L 6599.872981 266.107598 
L 6599.872981 266.112 
L 6615.754519 266.112 
L 6615.754519 266.112 
L 6631.636058 266.112 
L 6631.636058 266.112 
L 6647.517596 266.112 
L 6647.517596 266.112 
L 6663.399135 266.112 
L 6663.399135 266.103196 
L 6679.280673 266.103196 
L 6679.280673 266.107598 
L 6695.162212 266.107598 
L 6695.162212 266.112 
L 6711.04375 266.112 
L 6711.04375 266.107598 
L 6726.925288 266.107598 
L 6726.925288 266.112 
L 6742.806827 266.112 
L 6742.806827 266.112 
L 6758.688365 266.112 
L 6758.688365 266.112 
L 6774.569904 266.112 
L 6774.569904 266.112 
L 6790.451442 266.112 
L 6790.451442 266.112 
L 6806.332981 266.112 
L 6806.332981 266.112 
L 6822.214519 266.112 
L 6822.214519 266.112 
L 6838.096058 266.112 
L 6838.096058 266.112 
L 6853.977596 266.112 
L 6853.977596 266.103196 
L 6869.859135 266.103196 
L 6869.859135 266.112 
L 6885.740673 266.112 
L 6885.740673 266.107598 
L 6901.622212 266.107598 
L 6901.622212 266.107598 
L 6917.50375 266.107598 
L 6917.50375 266.107598 
L 6933.385288 266.107598 
L 6933.385288 266.112 
L 6949.266827 266.112 
L 6949.266827 266.112 
L 6965.148365 266.112 
L 6965.148365 266.112 
L 6981.029904 266.112 
L 6981.029904 266.112 
L 6996.911442 266.112 
L 6996.911442 266.112 
L 7012.792981 266.112 
L 7012.792981 266.112 
L 7028.674519 266.112 
L 7028.674519 266.107598 
L 7044.556058 266.107598 
L 7044.556058 266.107598 
L 7060.437596 266.107598 
L 7060.437596 266.107598 
L 7076.319135 266.107598 
L 7076.319135 266.112 
L 7092.200673 266.112 
L 7092.200673 266.112 
L 7108.082212 266.112 
L 7108.082212 266.112 
L 7123.96375 266.112 
L 7123.96375 266.112 
L 7139.845288 266.112 
L 7139.845288 266.112 
L 7155.726827 266.112 
L 7155.726827 266.107598 
L 7171.608365 266.107598 
L 7171.608365 266.112 
L 7187.489904 266.112 
L 7187.489904 266.112 
L 7203.371442 266.112 
L 7203.371442 266.112 
L 7219.252981 266.112 
L 7219.252981 266.112 
L 7235.134519 266.112 
L 7235.134519 266.107598 
L 7251.016058 266.107598 
L 7251.016058 266.112 
L 7266.897596 266.112 
L 7266.897596 266.112 
L 7282.779135 266.112 
L 7282.779135 266.107598 
L 7298.660673 266.107598 
L 7298.660673 266.112 
L 7314.542212 266.112 
L 7314.542212 266.112 
L 7330.42375 266.112 
L 7330.42375 266.112 
L 7346.305288 266.112 
L 7346.305288 266.112 
L 7362.186827 266.112 
L 7362.186827 266.112 
L 7378.068365 266.112 
L 7378.068365 266.112 
L 7393.949904 266.112 
L 7393.949904 266.107598 
L 7409.831442 266.107598 
L 7409.831442 266.112 
L 7425.712981 266.112 
L 7425.712981 266.112 
L 7441.594519 266.112 
L 7441.594519 266.112 
L 7457.476058 266.112 
L 7457.476058 266.112 
L 7473.357596 266.112 
L 7473.357596 266.107598 
L 7489.239135 266.107598 
L 7489.239135 266.112 
L 7505.120673 266.112 
L 7505.120673 266.112 
L 7521.002212 266.112 
L 7521.002212 266.112 
L 7536.88375 266.112 
L 7536.88375 266.112 
L 7552.765288 266.112 
L 7552.765288 266.107598 
L 7568.646827 266.107598 
L 7568.646827 266.112 
L 7584.528365 266.112 
L 7584.528365 266.112 
L 7600.409904 266.112 
L 7600.409904 266.112 
L 7616.291442 266.112 
L 7616.291442 266.112 
L 7632.172981 266.112 
L 7632.172981 266.112 
L 7648.054519 266.112 
L 7648.054519 266.112 
L 7663.936058 266.112 
L 7663.936058 266.107598 
L 7679.817596 266.107598 
L 7679.817596 266.112 
L 7663.936058 266.112 
L 7663.936058 266.112 
L 7648.054519 266.112 
L 7648.054519 266.112 
L 7632.172981 266.112 
L 7632.172981 266.112 
L 7616.291442 266.112 
L 7616.291442 266.112 
L 7600.409904 266.112 
L 7600.409904 266.112 
L 7584.528365 266.112 
L 7584.528365 266.112 
L 7568.646827 266.112 
L 7568.646827 266.112 
L 7552.765288 266.112 
L 7552.765288 266.112 
L 7536.88375 266.112 
L 7536.88375 266.112 
L 7521.002212 266.112 
L 7521.002212 266.112 
L 7505.120673 266.112 
L 7505.120673 266.112 
L 7489.239135 266.112 
L 7489.239135 266.112 
L 7473.357596 266.112 
L 7473.357596 266.112 
L 7457.476058 266.112 
L 7457.476058 266.112 
L 7441.594519 266.112 
L 7441.594519 266.112 
L 7425.712981 266.112 
L 7425.712981 266.112 
L 7409.831442 266.112 
L 7409.831442 266.112 
L 7393.949904 266.112 
L 7393.949904 266.112 
L 7378.068365 266.112 
L 7378.068365 266.112 
L 7362.186827 266.112 
L 7362.186827 266.112 
L 7346.305288 266.112 
L 7346.305288 266.112 
L 7330.42375 266.112 
L 7330.42375 266.112 
L 7314.542212 266.112 
L 7314.542212 266.112 
L 7298.660673 266.112 
L 7298.660673 266.112 
L 7282.779135 266.112 
L 7282.779135 266.112 
L 7266.897596 266.112 
L 7266.897596 266.112 
L 7251.016058 266.112 
L 7251.016058 266.112 
L 7235.134519 266.112 
L 7235.134519 266.112 
L 7219.252981 266.112 
L 7219.252981 266.112 
L 7203.371442 266.112 
L 7203.371442 266.112 
L 7187.489904 266.112 
L 7187.489904 266.112 
L 7171.608365 266.112 
L 7171.608365 266.112 
L 7155.726827 266.112 
L 7155.726827 266.112 
L 7139.845288 266.112 
L 7139.845288 266.112 
L 7123.96375 266.112 
L 7123.96375 266.112 
L 7108.082212 266.112 
L 7108.082212 266.112 
L 7092.200673 266.112 
L 7092.200673 266.112 
L 7076.319135 266.112 
L 7076.319135 266.112 
L 7060.437596 266.112 
L 7060.437596 266.112 
L 7044.556058 266.112 
L 7044.556058 266.112 
L 7028.674519 266.112 
L 7028.674519 266.112 
L 7012.792981 266.112 
L 7012.792981 266.112 
L 6996.911442 266.112 
L 6996.911442 266.112 
L 6981.029904 266.112 
L 6981.029904 266.112 
L 6965.148365 266.112 
L 6965.148365 266.112 
L 6949.266827 266.112 
L 6949.266827 266.112 
L 6933.385288 266.112 
L 6933.385288 266.112 
L 6917.50375 266.112 
L 6917.50375 266.112 
L 6901.622212 266.112 
L 6901.622212 266.112 
L 6885.740673 266.112 
L 6885.740673 266.112 
L 6869.859135 266.112 
L 6869.859135 266.112 
L 6853.977596 266.112 
L 6853.977596 266.112 
L 6838.096058 266.112 
L 6838.096058 266.112 
L 6822.214519 266.112 
L 6822.214519 266.112 
L 6806.332981 266.112 
L 6806.332981 266.112 
L 6790.451442 266.112 
L 6790.451442 266.112 
L 6774.569904 266.112 
L 6774.569904 266.112 
L 6758.688365 266.112 
L 6758.688365 266.112 
L 6742.806827 266.112 
L 6742.806827 266.112 
L 6726.925288 266.112 
L 6726.925288 266.112 
L 6711.04375 266.112 
L 6711.04375 266.112 
L 6695.162212 266.112 
L 6695.162212 266.112 
L 6679.280673 266.112 
L 6679.280673 266.112 
L 6663.399135 266.112 
L 6663.399135 266.112 
L 6647.517596 266.112 
L 6647.517596 266.112 
L 6631.636058 266.112 
L 6631.636058 266.112 
L 6615.754519 266.112 
L 6615.754519 266.112 
L 6599.872981 266.112 
L 6599.872981 266.112 
L 6583.991442 266.112 
L 6583.991442 266.112 
L 6568.109904 266.112 
L 6568.109904 266.112 
L 6552.228365 266.112 
L 6552.228365 266.112 
L 6536.346827 266.112 
L 6536.346827 266.112 
L 6520.465288 266.112 
L 6520.465288 266.112 
L 6504.58375 266.112 
L 6504.58375 266.112 
L 6488.702212 266.112 
L 6488.702212 266.112 
L 6472.820673 266.112 
L 6472.820673 266.112 
L 6456.939135 266.112 
L 6456.939135 266.112 
L 6441.057596 266.112 
L 6441.057596 266.112 
L 6425.176058 266.112 
L 6425.176058 266.112 
L 6409.294519 266.112 
L 6409.294519 266.112 
L 6393.412981 266.112 
L 6393.412981 266.112 
L 6377.531442 266.112 
L 6377.531442 266.112 
L 6361.649904 266.112 
L 6361.649904 266.112 
L 6345.768365 266.112 
L 6345.768365 266.112 
L 6329.886827 266.112 
L 6329.886827 266.112 
L 6314.005288 266.112 
L 6314.005288 266.112 
L 6298.12375 266.112 
L 6298.12375 266.112 
L 6282.242212 266.112 
L 6282.242212 266.112 
L 6266.360673 266.112 
L 6266.360673 266.112 
L 6250.479135 266.112 
L 6250.479135 266.112 
L 6234.597596 266.112 
L 6234.597596 266.112 
L 6218.716058 266.112 
L 6218.716058 266.112 
L 6202.834519 266.112 
L 6202.834519 266.112 
L 6186.952981 266.112 
L 6186.952981 266.112 
L 6171.071442 266.112 
L 6171.071442 266.112 
L 6155.189904 266.112 
L 6155.189904 266.112 
L 6139.308365 266.112 
L 6139.308365 266.112 
L 6123.426827 266.112 
L 6123.426827 266.112 
L 6107.545288 266.112 
L 6107.545288 266.112 
L 6091.66375 266.112 
L 6091.66375 266.112 
L 6075.782212 266.112 
L 6075.782212 266.112 
L 6059.900673 266.112 
L 6059.900673 266.112 
L 6044.019135 266.112 
L 6044.019135 266.112 
L 6028.137596 266.112 
L 6028.137596 266.112 
L 6012.256058 266.112 
L 6012.256058 266.112 
L 5996.374519 266.112 
L 5996.374519 266.112 
L 5980.492981 266.112 
L 5980.492981 266.112 
L 5964.611442 266.112 
L 5964.611442 266.112 
L 5948.729904 266.112 
L 5948.729904 266.112 
L 5932.848365 266.112 
L 5932.848365 266.112 
L 5916.966827 266.112 
L 5916.966827 266.112 
L 5901.085288 266.112 
L 5901.085288 266.112 
L 5885.20375 266.112 
L 5885.20375 266.112 
L 5869.322212 266.112 
L 5869.322212 266.112 
L 5853.440673 266.112 
L 5853.440673 266.112 
L 5837.559135 266.112 
L 5837.559135 266.112 
L 5821.677596 266.112 
L 5821.677596 266.112 
L 5805.796058 266.112 
L 5805.796058 266.112 
L 5789.914519 266.112 
L 5789.914519 266.112 
L 5774.032981 266.112 
L 5774.032981 266.112 
L 5758.151442 266.112 
L 5758.151442 266.112 
L 5742.269904 266.112 
L 5742.269904 266.112 
L 5726.388365 266.112 
L 5726.388365 266.112 
L 5710.506827 266.112 
L 5710.506827 266.112 
L 5694.625288 266.112 
L 5694.625288 266.112 
L 5678.74375 266.112 
L 5678.74375 266.112 
L 5662.862212 266.112 
L 5662.862212 266.112 
L 5646.980673 266.112 
L 5646.980673 266.112 
L 5631.099135 266.112 
L 5631.099135 266.112 
L 5615.217596 266.112 
L 5615.217596 266.112 
L 5599.336058 266.112 
L 5599.336058 266.112 
L 5583.454519 266.112 
L 5583.454519 266.112 
L 5567.572981 266.112 
L 5567.572981 266.112 
L 5551.691442 266.112 
L 5551.691442 266.112 
L 5535.809904 266.112 
L 5535.809904 266.112 
L 5519.928365 266.112 
L 5519.928365 266.112 
L 5504.046827 266.112 
L 5504.046827 266.112 
L 5488.165288 266.112 
L 5488.165288 266.112 
L 5472.28375 266.112 
L 5472.28375 266.112 
L 5456.402212 266.112 
L 5456.402212 266.112 
L 5440.520673 266.112 
L 5440.520673 266.112 
L 5424.639135 266.112 
L 5424.639135 266.112 
L 5408.757596 266.112 
L 5408.757596 266.112 
L 5392.876058 266.112 
L 5392.876058 266.112 
L 5376.994519 266.112 
L 5376.994519 266.112 
L 5361.112981 266.112 
L 5361.112981 266.112 
L 5345.231442 266.112 
L 5345.231442 266.112 
L 5329.349904 266.112 
L 5329.349904 266.112 
L 5313.468365 266.112 
L 5313.468365 266.112 
L 5297.586827 266.112 
L 5297.586827 266.112 
L 5281.705288 266.112 
L 5281.705288 266.112 
L 5265.82375 266.112 
L 5265.82375 266.112 
L 5249.942212 266.112 
L 5249.942212 266.112 
L 5234.060673 266.112 
L 5234.060673 266.112 
L 5218.179135 266.112 
L 5218.179135 266.112 
L 5202.297596 266.112 
L 5202.297596 266.112 
L 5186.416058 266.112 
L 5186.416058 266.112 
L 5170.534519 266.112 
L 5170.534519 266.112 
L 5154.652981 266.112 
L 5154.652981 266.112 
L 5138.771442 266.112 
L 5138.771442 266.112 
L 5122.889904 266.112 
L 5122.889904 266.112 
L 5107.008365 266.112 
L 5107.008365 266.112 
L 5091.126827 266.112 
L 5091.126827 266.112 
L 5075.245288 266.112 
L 5075.245288 266.112 
L 5059.36375 266.112 
L 5059.36375 266.112 
L 5043.482212 266.112 
L 5043.482212 266.112 
L 5027.600673 266.112 
L 5027.600673 266.112 
L 5011.719135 266.112 
L 5011.719135 266.112 
L 4995.837596 266.112 
L 4995.837596 266.112 
L 4979.956058 266.112 
L 4979.956058 266.112 
L 4964.074519 266.112 
L 4964.074519 266.112 
L 4948.192981 266.112 
L 4948.192981 266.112 
L 4932.311442 266.112 
L 4932.311442 266.112 
L 4916.429904 266.112 
L 4916.429904 266.112 
L 4900.548365 266.112 
L 4900.548365 266.112 
L 4884.666827 266.112 
L 4884.666827 266.112 
L 4868.785288 266.112 
L 4868.785288 266.112 
L 4852.90375 266.112 
L 4852.90375 266.112 
L 4837.022212 266.112 
L 4837.022212 266.112 
L 4821.140673 266.112 
L 4821.140673 266.112 
L 4805.259135 266.112 
L 4805.259135 266.112 
L 4789.377596 266.112 
L 4789.377596 266.112 
L 4773.496058 266.112 
L 4773.496058 266.112 
L 4757.614519 266.112 
L 4757.614519 266.112 
L 4741.732981 266.112 
L 4741.732981 266.112 
L 4725.851442 266.112 
L 4725.851442 266.112 
L 4709.969904 266.112 
L 4709.969904 266.112 
L 4694.088365 266.112 
L 4694.088365 266.112 
L 4678.206827 266.112 
L 4678.206827 266.112 
L 4662.325288 266.112 
L 4662.325288 266.112 
L 4646.44375 266.112 
L 4646.44375 266.112 
L 4630.562212 266.112 
L 4630.562212 266.112 
L 4614.680673 266.112 
L 4614.680673 266.112 
L 4598.799135 266.112 
L 4598.799135 266.112 
L 4582.917596 266.112 
L 4582.917596 266.112 
L 4567.036058 266.112 
L 4567.036058 266.112 
L 4551.154519 266.112 
L 4551.154519 266.112 
L 4535.272981 266.112 
L 4535.272981 266.112 
L 4519.391442 266.112 
L 4519.391442 266.112 
L 4503.509904 266.112 
L 4503.509904 266.112 
L 4487.628365 266.112 
L 4487.628365 266.112 
L 4471.746827 266.112 
L 4471.746827 266.112 
L 4455.865288 266.112 
L 4455.865288 266.112 
L 4439.98375 266.112 
L 4439.98375 266.112 
L 4424.102212 266.112 
L 4424.102212 266.112 
L 4408.220673 266.112 
L 4408.220673 266.112 
L 4392.339135 266.112 
L 4392.339135 266.112 
L 4376.457596 266.112 
L 4376.457596 266.112 
L 4360.576058 266.112 
L 4360.576058 266.112 
L 4344.694519 266.112 
L 4344.694519 266.112 
L 4328.812981 266.112 
L 4328.812981 266.112 
L 4312.931442 266.112 
L 4312.931442 266.112 
L 4297.049904 266.112 
L 4297.049904 266.112 
L 4281.168365 266.112 
L 4281.168365 266.112 
L 4265.286827 266.112 
L 4265.286827 266.112 
L 4249.405288 266.112 
L 4249.405288 266.112 
L 4233.52375 266.112 
L 4233.52375 266.112 
L 4217.642212 266.112 
L 4217.642212 266.112 
L 4201.760673 266.112 
L 4201.760673 266.112 
L 4185.879135 266.112 
L 4185.879135 266.112 
L 4169.997596 266.112 
L 4169.997596 266.112 
L 4154.116058 266.112 
L 4154.116058 266.112 
L 4138.234519 266.112 
L 4138.234519 266.112 
L 4122.352981 266.112 
L 4122.352981 266.112 
L 4106.471442 266.112 
L 4106.471442 266.112 
L 4090.589904 266.112 
L 4090.589904 266.112 
L 4074.708365 266.112 
L 4074.708365 266.112 
L 4058.826827 266.112 
L 4058.826827 266.112 
L 4042.945288 266.112 
L 4042.945288 266.112 
L 4027.06375 266.112 
L 4027.06375 266.112 
L 4011.182212 266.112 
L 4011.182212 266.112 
L 3995.300673 266.112 
L 3995.300673 266.112 
L 3979.419135 266.112 
L 3979.419135 266.112 
L 3963.537596 266.112 
L 3963.537596 266.112 
L 3947.656058 266.112 
L 3947.656058 266.112 
L 3931.774519 266.112 
L 3931.774519 266.112 
L 3915.892981 266.112 
L 3915.892981 266.112 
L 3900.011442 266.112 
L 3900.011442 266.112 
L 3884.129904 266.112 
L 3884.129904 266.112 
L 3868.248365 266.112 
L 3868.248365 266.112 
L 3852.366827 266.112 
L 3852.366827 266.112 
L 3836.485288 266.112 
L 3836.485288 266.112 
L 3820.60375 266.112 
L 3820.60375 266.112 
L 3804.722212 266.112 
L 3804.722212 266.112 
L 3788.840673 266.112 
L 3788.840673 266.112 
L 3772.959135 266.112 
L 3772.959135 266.112 
L 3757.077596 266.112 
L 3757.077596 266.112 
L 3741.196058 266.112 
L 3741.196058 266.112 
L 3725.314519 266.112 
L 3725.314519 266.112 
L 3709.432981 266.112 
L 3709.432981 266.112 
L 3693.551442 266.112 
L 3693.551442 266.112 
L 3677.669904 266.112 
L 3677.669904 266.112 
L 3661.788365 266.112 
L 3661.788365 266.112 
L 3645.906827 266.112 
L 3645.906827 266.112 
L 3630.025288 266.112 
L 3630.025288 266.112 
L 3614.14375 266.112 
L 3614.14375 266.112 
L 3598.262212 266.112 
L 3598.262212 266.112 
L 3582.380673 266.112 
L 3582.380673 266.112 
L 3566.499135 266.112 
L 3566.499135 266.112 
L 3550.617596 266.112 
L 3550.617596 266.112 
L 3534.736058 266.112 
L 3534.736058 266.112 
L 3518.854519 266.112 
L 3518.854519 266.112 
L 3502.972981 266.112 
L 3502.972981 266.112 
L 3487.091442 266.112 
L 3487.091442 266.112 
L 3471.209904 266.112 
L 3471.209904 266.112 
L 3455.328365 266.112 
L 3455.328365 266.112 
L 3439.446827 266.112 
L 3439.446827 266.112 
L 3423.565288 266.112 
L 3423.565288 266.112 
L 3407.68375 266.112 
L 3407.68375 266.112 
L 3391.802212 266.112 
L 3391.802212 266.112 
L 3375.920673 266.112 
L 3375.920673 266.112 
L 3360.039135 266.112 
L 3360.039135 266.112 
L 3344.157596 266.112 
L 3344.157596 266.112 
L 3328.276058 266.112 
L 3328.276058 266.112 
L 3312.394519 266.112 
L 3312.394519 266.112 
L 3296.512981 266.112 
L 3296.512981 266.112 
L 3280.631442 266.112 
L 3280.631442 266.112 
L 3264.749904 266.112 
L 3264.749904 266.112 
L 3248.868365 266.112 
L 3248.868365 266.112 
L 3232.986827 266.112 
L 3232.986827 266.112 
L 3217.105288 266.112 
L 3217.105288 266.112 
L 3201.22375 266.112 
L 3201.22375 266.112 
L 3185.342212 266.112 
L 3185.342212 266.112 
L 3169.460673 266.112 
L 3169.460673 266.112 
L 3153.579135 266.112 
L 3153.579135 266.112 
L 3137.697596 266.112 
L 3137.697596 266.112 
L 3121.816058 266.112 
L 3121.816058 266.112 
L 3105.934519 266.112 
L 3105.934519 266.112 
L 3090.052981 266.112 
L 3090.052981 266.112 
L 3074.171442 266.112 
L 3074.171442 266.112 
L 3058.289904 266.112 
L 3058.289904 266.112 
L 3042.408365 266.112 
L 3042.408365 266.112 
L 3026.526827 266.112 
L 3026.526827 266.112 
L 3010.645288 266.112 
L 3010.645288 266.112 
L 2994.76375 266.112 
L 2994.76375 266.112 
L 2978.882212 266.112 
L 2978.882212 266.112 
L 2963.000673 266.112 
L 2963.000673 266.112 
L 2947.119135 266.112 
L 2947.119135 266.112 
L 2931.237596 266.112 
L 2931.237596 266.112 
L 2915.356058 266.112 
L 2915.356058 266.112 
L 2899.474519 266.112 
L 2899.474519 266.112 
L 2883.592981 266.112 
L 2883.592981 266.112 
L 2867.711442 266.112 
L 2867.711442 266.112 
L 2851.829904 266.112 
L 2851.829904 266.112 
L 2835.948365 266.112 
L 2835.948365 266.112 
L 2820.066827 266.112 
L 2820.066827 266.112 
L 2804.185288 266.112 
L 2804.185288 266.112 
L 2788.30375 266.112 
L 2788.30375 266.112 
L 2772.422212 266.112 
L 2772.422212 266.112 
L 2756.540673 266.112 
L 2756.540673 266.112 
L 2740.659135 266.112 
L 2740.659135 266.112 
L 2724.777596 266.112 
L 2724.777596 266.112 
L 2708.896058 266.112 
L 2708.896058 266.112 
L 2693.014519 266.112 
L 2693.014519 266.112 
L 2677.132981 266.112 
L 2677.132981 266.112 
L 2661.251442 266.112 
L 2661.251442 266.112 
L 2645.369904 266.112 
L 2645.369904 266.112 
L 2629.488365 266.112 
L 2629.488365 266.112 
L 2613.606827 266.112 
L 2613.606827 266.112 
L 2597.725288 266.112 
L 2597.725288 266.112 
L 2581.84375 266.112 
L 2581.84375 266.112 
L 2565.962212 266.112 
L 2565.962212 266.112 
L 2550.080673 266.112 
L 2550.080673 266.112 
L 2534.199135 266.112 
L 2534.199135 266.112 
L 2518.317596 266.112 
L 2518.317596 266.112 
L 2502.436058 266.112 
L 2502.436058 266.112 
L 2486.554519 266.112 
L 2486.554519 266.112 
L 2470.672981 266.112 
L 2470.672981 266.112 
L 2454.791442 266.112 
L 2454.791442 266.112 
L 2438.909904 266.112 
L 2438.909904 266.112 
L 2423.028365 266.112 
L 2423.028365 266.112 
L 2407.146827 266.112 
L 2407.146827 266.112 
L 2391.265288 266.112 
L 2391.265288 266.112 
L 2375.38375 266.112 
L 2375.38375 266.112 
L 2359.502212 266.112 
L 2359.502212 266.112 
L 2343.620673 266.112 
L 2343.620673 266.112 
L 2327.739135 266.112 
L 2327.739135 266.112 
L 2311.857596 266.112 
L 2311.857596 266.112 
L 2295.976058 266.112 
L 2295.976058 266.112 
L 2280.094519 266.112 
L 2280.094519 266.112 
L 2264.212981 266.112 
L 2264.212981 266.112 
L 2248.331442 266.112 
L 2248.331442 266.112 
L 2232.449904 266.112 
L 2232.449904 266.112 
L 2216.568365 266.112 
L 2216.568365 266.112 
L 2200.686827 266.112 
L 2200.686827 266.112 
L 2184.805288 266.112 
L 2184.805288 266.112 
L 2168.92375 266.112 
L 2168.92375 266.112 
L 2153.042212 266.112 
L 2153.042212 266.112 
L 2137.160673 266.112 
L 2137.160673 266.112 
L 2121.279135 266.112 
L 2121.279135 266.112 
L 2105.397596 266.112 
L 2105.397596 266.112 
L 2089.516058 266.112 
L 2089.516058 266.112 
L 2073.634519 266.112 
L 2073.634519 266.112 
L 2057.752981 266.112 
L 2057.752981 266.112 
L 2041.871442 266.112 
L 2041.871442 266.112 
L 2025.989904 266.112 
L 2025.989904 266.112 
L 2010.108365 266.112 
L 2010.108365 266.112 
L 1994.226827 266.112 
L 1994.226827 266.112 
L 1978.345288 266.112 
L 1978.345288 266.112 
L 1962.46375 266.112 
L 1962.46375 266.112 
L 1946.582212 266.112 
L 1946.582212 266.112 
L 1930.700673 266.112 
L 1930.700673 266.112 
L 1914.819135 266.112 
L 1914.819135 266.112 
L 1898.937596 266.112 
L 1898.937596 266.112 
L 1883.056058 266.112 
L 1883.056058 266.112 
L 1867.174519 266.112 
L 1867.174519 266.112 
L 1851.292981 266.112 
L 1851.292981 266.112 
L 1835.411442 266.112 
L 1835.411442 266.112 
L 1819.529904 266.112 
L 1819.529904 266.112 
L 1803.648365 266.112 
L 1803.648365 266.112 
L 1787.766827 266.112 
L 1787.766827 266.112 
L 1771.885288 266.112 
L 1771.885288 266.112 
L 1756.00375 266.112 
L 1756.00375 266.112 
L 1740.122212 266.112 
L 1740.122212 266.112 
L 1724.240673 266.112 
L 1724.240673 266.112 
L 1708.359135 266.112 
L 1708.359135 266.112 
L 1692.477596 266.112 
L 1692.477596 266.112 
L 1676.596058 266.112 
L 1676.596058 266.112 
L 1660.714519 266.112 
L 1660.714519 266.112 
L 1644.832981 266.112 
L 1644.832981 266.112 
L 1628.951442 266.112 
L 1628.951442 266.112 
L 1613.069904 266.112 
L 1613.069904 266.112 
L 1597.188365 266.112 
L 1597.188365 266.112 
L 1581.306827 266.112 
L 1581.306827 266.112 
L 1565.425288 266.112 
L 1565.425288 266.112 
L 1549.54375 266.112 
L 1549.54375 266.112 
L 1533.662212 266.112 
L 1533.662212 266.112 
L 1517.780673 266.112 
L 1517.780673 266.112 
L 1501.899135 266.112 
L 1501.899135 266.112 
L 1486.017596 266.112 
L 1486.017596 266.112 
L 1470.136058 266.112 
L 1470.136058 266.112 
L 1454.254519 266.112 
L 1454.254519 266.112 
L 1438.372981 266.112 
L 1438.372981 266.112 
L 1422.491442 266.112 
L 1422.491442 266.112 
L 1406.609904 266.112 
L 1406.609904 266.112 
L 1390.728365 266.112 
L 1390.728365 266.112 
L 1374.846827 266.112 
L 1374.846827 266.112 
L 1358.965288 266.112 
L 1358.965288 266.112 
L 1343.08375 266.112 
L 1343.08375 266.112 
L 1327.202212 266.112 
L 1327.202212 266.112 
L 1311.320673 266.112 
L 1311.320673 266.112 
L 1295.439135 266.112 
L 1295.439135 266.112 
L 1279.557596 266.112 
L 1279.557596 266.112 
L 1263.676058 266.112 
L 1263.676058 266.112 
L 1247.794519 266.112 
L 1247.794519 266.112 
L 1231.912981 266.112 
L 1231.912981 266.112 
L 1216.031442 266.112 
L 1216.031442 266.112 
L 1200.149904 266.112 
L 1200.149904 266.112 
L 1184.268365 266.112 
L 1184.268365 266.112 
L 1168.386827 266.112 
L 1168.386827 266.112 
L 1152.505288 266.112 
L 1152.505288 266.112 
L 1136.62375 266.112 
L 1136.62375 266.112 
L 1120.742212 266.112 
L 1120.742212 266.112 
L 1104.860673 266.112 
L 1104.860673 266.112 
L 1088.979135 266.112 
L 1088.979135 266.112 
L 1073.097596 266.112 
L 1073.097596 266.112 
L 1057.216058 266.112 
L 1057.216058 266.112 
L 1041.334519 266.112 
L 1041.334519 266.112 
L 1025.452981 266.112 
L 1025.452981 266.112 
L 1009.571442 266.112 
L 1009.571442 266.112 
L 993.689904 266.112 
L 993.689904 266.112 
L 977.808365 266.112 
L 977.808365 266.112 
L 961.926827 266.112 
L 961.926827 266.112 
L 946.045288 266.112 
L 946.045288 266.112 
L 930.16375 266.112 
L 930.16375 266.112 
L 914.282212 266.112 
L 914.282212 266.112 
L 898.400673 266.112 
L 898.400673 266.112 
L 882.519135 266.112 
L 882.519135 266.112 
L 866.637596 266.112 
L 866.637596 266.112 
L 850.756058 266.112 
L 850.756058 266.112 
L 834.874519 266.112 
L 834.874519 266.112 
L 818.992981 266.112 
L 818.992981 266.112 
L 803.111442 266.112 
L 803.111442 266.112 
L 787.229904 266.112 
L 787.229904 266.112 
L 771.348365 266.112 
L 771.348365 266.112 
L 755.466827 266.112 
L 755.466827 266.112 
L 739.585288 266.112 
L 739.585288 266.112 
L 723.70375 266.112 
L 723.70375 266.112 
L 707.822212 266.112 
L 707.822212 266.112 
L 691.940673 266.112 
L 691.940673 266.112 
L 676.059135 266.112 
L 676.059135 266.112 
L 660.177596 266.112 
L 660.177596 266.112 
L 644.296058 266.112 
L 644.296058 266.112 
L 628.414519 266.112 
L 628.414519 266.112 
L 612.532981 266.112 
L 612.532981 266.112 
L 596.651442 266.112 
L 596.651442 266.112 
L 580.769904 266.112 
L 580.769904 266.112 
L 564.888365 266.112 
L 564.888365 266.112 
L 549.006827 266.112 
L 549.006827 266.112 
L 533.125288 266.112 
L 533.125288 266.112 
L 517.24375 266.112 
L 517.24375 266.112 
L 501.362212 266.112 
L 501.362212 266.112 
L 485.480673 266.112 
L 485.480673 266.112 
L 469.599135 266.112 
L 469.599135 266.112 
L 453.717596 266.112 
L 453.717596 266.112 
L 437.836058 266.112 
L 437.836058 266.112 
L 421.954519 266.112 
L 421.954519 266.112 
L 406.072981 266.112 
L 406.072981 266.112 
L 390.191442 266.112 
L 390.191442 266.112 
L 374.309904 266.112 
L 374.309904 266.112 
L 358.428365 266.112 
L 358.428365 266.112 
L 342.546827 266.112 
L 342.546827 266.112 
L 326.665288 266.112 
L 326.665288 266.112 
L 310.78375 266.112 
L 310.78375 266.112 
L 294.902212 266.112 
L 294.902212 266.112 
L 279.020673 266.112 
L 279.020673 266.112 
L 263.139135 266.112 
L 263.139135 266.112 
L 247.257596 266.112 
L 247.257596 266.112 
L 231.376058 266.112 
L 231.376058 266.112 
L 215.494519 266.112 
L 215.494519 266.112 
L 199.612981 266.112 
L 199.612981 266.112 
L 183.731442 266.112 
L 183.731442 266.112 
L 167.849904 266.112 
L 167.849904 266.112 
L 151.968365 266.112 
L 151.968365 266.112 
L 136.086827 266.112 
L 136.086827 266.112 
L 120.205288 266.112 
L 120.205288 266.112 
L 104.32375 266.112 
L 104.32375 266.112 
L 88.442212 266.112 
L 88.442212 266.112 
L 72.560673 266.112 
L 72.560673 266.112 
z
" clip-path="url(#pcad357c667)" style="fill: #1e90ff; opacity: 0.2"/>
   </g>
   <g id="matplotlib.axis_1">
    <g id="xtick_1">
     <g id="line2d_1">
      <defs>
       <path id="m86d7ca0636" d="M 0 0 
L 0 3.5 
" style="stroke: #000000; stroke-width: 0.8"/>
      </defs>
      <g>
       <use xlink:href="#m86d7ca0636" x="42.94375" y="266.112" style="stroke: #000000; stroke-width: 0.8"/>
      </g>
     </g>
     <g id="text_1">
      <!-- 0 -->
      <g transform="translate(39.7625 280.710437)scale(0.1 -0.1)">
       <defs>
        <path id="DejaVuSans-30" d="M 2034 4250 
Q 1547 4250 1301 3770 
Q 1056 3291 1056 2328 
Q 1056 1369 1301 889 
Q 1547 409 2034 409 
Q 2525 409 2770 889 
Q 3016 1369 3016 2328 
Q 3016 3291 2770 3770 
Q 2525 4250 2034 4250 
z
M 2034 4750 
Q 2819 4750 3233 4129 
Q 3647 3509 3647 2328 
Q 3647 1150 3233 529 
Q 2819 -91 2034 -91 
Q 1250 -91 836 529 
Q 422 1150 422 2328 
Q 422 3509 836 4129 
Q 1250 4750 2034 4750 
z
" transform="scale(0.015625)"/>
       </defs>
       <use xlink:href="#DejaVuSans-30"/>
      </g>
     </g>
    </g>
    <g id="xtick_2">
     <g id="line2d_2">
      <g>
       <use xlink:href="#m86d7ca0636" x="111.620673" y="266.112" style="stroke: #000000; stroke-width: 0.8"/>
      </g>
     </g>
     <g id="text_2">
      <!-- 5 -->
      <g transform="translate(108.439423 280.710437)scale(0.1 -0.1)">
       <defs>
        <path id="DejaVuSans-35" d="M 691 4666 
L 3169 4666 
L 3169 4134 
L 1269 4134 
L 1269 2991 
Q 1406 3038 1543 3061 
Q 1681 3084 1819 3084 
Q 2600 3084 3056 2656 
Q 3513 2228 3513 1497 
Q 3513 744 3044 326 
Q 2575 -91 1722 -91 
Q 1428 -91 1123 -41 
Q 819 9 494 109 
L 494 744 
Q 775 591 1075 516 
Q 1375 441 1709 441 
Q 2250 441 2565 725 
Q 2881 1009 2881 1497 
Q 2881 1984 2565 2268 
Q 2250 2553 1709 2553 
Q 1456 2553 1204 2497 
Q 953 2441 691 2322 
L 691 4666 
z
" transform="scale(0.015625)"/>
       </defs>
       <use xlink:href="#DejaVuSans-35"/>
      </g>
     </g>
    </g>
    <g id="xtick_3">
     <g id="line2d_3">
      <g>
       <use xlink:href="#m86d7ca0636" x="180.297596" y="266.112" style="stroke: #000000; stroke-width: 0.8"/>
      </g>
     </g>
     <g id="text_3">
      <!-- 10 -->
      <g transform="translate(173.935096 280.710437)scale(0.1 -0.1)">
       <defs>
        <path id="DejaVuSans-31" d="M 794 531 
L 1825 531 
L 1825 4091 
L 703 3866 
L 703 4441 
L 1819 4666 
L 2450 4666 
L 2450 531 
L 3481 531 
L 3481 0 
L 794 0 
L 794 531 
z
" transform="scale(0.015625)"/>
       </defs>
       <use xlink:href="#DejaVuSans-31"/>
       <use xlink:href="#DejaVuSans-30" x="63.623047"/>
      </g>
     </g>
    </g>
    <g id="xtick_4">
     <g id="line2d_4">
      <g>
       <use xlink:href="#m86d7ca0636" x="248.974519" y="266.112" style="stroke: #000000; stroke-width: 0.8"/>
      </g>
     </g>
     <g id="text_4">
      <!-- 15 -->
      <g transform="translate(242.612019 280.710437)scale(0.1 -0.1)">
       <use xlink:href="#DejaVuSans-31"/>
       <use xlink:href="#DejaVuSans-35" x="63.623047"/>
      </g>
     </g>
    </g>
    <g id="xtick_5">
     <g id="line2d_5">
      <g>
       <use xlink:href="#m86d7ca0636" x="317.651442" y="266.112" style="stroke: #000000; stroke-width: 0.8"/>
      </g>
     </g>
     <g id="text_5">
      <!-- 20 -->
      <g transform="translate(311.288942 280.710437)scale(0.1 -0.1)">
       <defs>
        <path id="DejaVuSans-32" d="M 1228 531 
L 3431 531 
L 3431 0 
L 469 0 
L 469 531 
Q 828 903 1448 1529 
Q 2069 2156 2228 2338 
Q 2531 2678 2651 2914 
Q 2772 3150 2772 3378 
Q 2772 3750 2511 3984 
Q 2250 4219 1831 4219 
Q 1534 4219 1204 4116 
Q 875 4013 500 3803 
L 500 4441 
Q 881 4594 1212 4672 
Q 1544 4750 1819 4750 
Q 2544 4750 2975 4387 
Q 3406 4025 3406 3419 
Q 3406 3131 3298 2873 
Q 3191 2616 2906 2266 
Q 2828 2175 2409 1742 
Q 1991 1309 1228 531 
z
" transform="scale(0.015625)"/>
       </defs>
       <use xlink:href="#DejaVuSans-32"/>
       <use xlink:href="#DejaVuSans-30" x="63.623047"/>
      </g>
     </g>
    </g>
    <g id="xtick_6">
     <g id="line2d_6">
      <g>
       <use xlink:href="#m86d7ca0636" x="386.328365" y="266.112" style="stroke: #000000; stroke-width: 0.8"/>
      </g>
     </g>
     <g id="text_6">
      <!-- 25 -->
      <g transform="translate(379.965865 280.710437)scale(0.1 -0.1)">
       <use xlink:href="#DejaVuSans-32"/>
       <use xlink:href="#DejaVuSans-35" x="63.623047"/>
      </g>
     </g>
    </g>
    <g id="text_7">
     <!-- Intensity within "hat" mask -->
     <g transform="translate(153.581875 294.388562)scale(0.1 -0.1)">
      <defs>
       <path id="DejaVuSans-49" d="M 628 4666 
L 1259 4666 
L 1259 0 
L 628 0 
L 628 4666 
z
" transform="scale(0.015625)"/>
       <path id="DejaVuSans-6e" d="M 3513 2113 
L 3513 0 
L 2938 0 
L 2938 2094 
Q 2938 2591 2744 2837 
Q 2550 3084 2163 3084 
Q 1697 3084 1428 2787 
Q 1159 2491 1159 1978 
L 1159 0 
L 581 0 
L 581 3500 
L 1159 3500 
L 1159 2956 
Q 1366 3272 1645 3428 
Q 1925 3584 2291 3584 
Q 2894 3584 3203 3211 
Q 3513 2838 3513 2113 
z
" transform="scale(0.015625)"/>
       <path id="DejaVuSans-74" d="M 1172 4494 
L 1172 3500 
L 2356 3500 
L 2356 3053 
L 1172 3053 
L 1172 1153 
Q 1172 725 1289 603 
Q 1406 481 1766 481 
L 2356 481 
L 2356 0 
L 1766 0 
Q 1100 0 847 248 
Q 594 497 594 1153 
L 594 3053 
L 172 3053 
L 172 3500 
L 594 3500 
L 594 4494 
L 1172 4494 
z
" transform="scale(0.015625)"/>
       <path id="DejaVuSans-65" d="M 3597 1894 
L 3597 1613 
L 953 1613 
Q 991 1019 1311 708 
Q 1631 397 2203 397 
Q 2534 397 2845 478 
Q 3156 559 3463 722 
L 3463 178 
Q 3153 47 2828 -22 
Q 2503 -91 2169 -91 
Q 1331 -91 842 396 
Q 353 884 353 1716 
Q 353 2575 817 3079 
Q 1281 3584 2069 3584 
Q 2775 3584 3186 3129 
Q 3597 2675 3597 1894 
z
M 3022 2063 
Q 3016 2534 2758 2815 
Q 2500 3097 2075 3097 
Q 1594 3097 1305 2825 
Q 1016 2553 972 2059 
L 3022 2063 
z
" transform="scale(0.015625)"/>
       <path id="DejaVuSans-73" d="M 2834 3397 
L 2834 2853 
Q 2591 2978 2328 3040 
Q 2066 3103 1784 3103 
Q 1356 3103 1142 2972 
Q 928 2841 928 2578 
Q 928 2378 1081 2264 
Q 1234 2150 1697 2047 
L 1894 2003 
Q 2506 1872 2764 1633 
Q 3022 1394 3022 966 
Q 3022 478 2636 193 
Q 2250 -91 1575 -91 
Q 1294 -91 989 -36 
Q 684 19 347 128 
L 347 722 
Q 666 556 975 473 
Q 1284 391 1588 391 
Q 1994 391 2212 530 
Q 2431 669 2431 922 
Q 2431 1156 2273 1281 
Q 2116 1406 1581 1522 
L 1381 1569 
Q 847 1681 609 1914 
Q 372 2147 372 2553 
Q 372 3047 722 3315 
Q 1072 3584 1716 3584 
Q 2034 3584 2315 3537 
Q 2597 3491 2834 3397 
z
" transform="scale(0.015625)"/>
       <path id="DejaVuSans-69" d="M 603 3500 
L 1178 3500 
L 1178 0 
L 603 0 
L 603 3500 
z
M 603 4863 
L 1178 4863 
L 1178 4134 
L 603 4134 
L 603 4863 
z
" transform="scale(0.015625)"/>
       <path id="DejaVuSans-79" d="M 2059 -325 
Q 1816 -950 1584 -1140 
Q 1353 -1331 966 -1331 
L 506 -1331 
L 506 -850 
L 844 -850 
Q 1081 -850 1212 -737 
Q 1344 -625 1503 -206 
L 1606 56 
L 191 3500 
L 800 3500 
L 1894 763 
L 2988 3500 
L 3597 3500 
L 2059 -325 
z
" transform="scale(0.015625)"/>
       <path id="DejaVuSans-20" transform="scale(0.015625)"/>
       <path id="DejaVuSans-77" d="M 269 3500 
L 844 3500 
L 1563 769 
L 2278 3500 
L 2956 3500 
L 3675 769 
L 4391 3500 
L 4966 3500 
L 4050 0 
L 3372 0 
L 2619 2869 
L 1863 0 
L 1184 0 
L 269 3500 
z
" transform="scale(0.015625)"/>
       <path id="DejaVuSans-68" d="M 3513 2113 
L 3513 0 
L 2938 0 
L 2938 2094 
Q 2938 2591 2744 2837 
Q 2550 3084 2163 3084 
Q 1697 3084 1428 2787 
Q 1159 2491 1159 1978 
L 1159 0 
L 581 0 
L 581 4863 
L 1159 4863 
L 1159 2956 
Q 1366 3272 1645 3428 
Q 1925 3584 2291 3584 
Q 2894 3584 3203 3211 
Q 3513 2838 3513 2113 
z
" transform="scale(0.015625)"/>
       <path id="DejaVuSans-22" d="M 1147 4666 
L 1147 2931 
L 616 2931 
L 616 4666 
L 1147 4666 
z
M 2328 4666 
L 2328 2931 
L 1797 2931 
L 1797 4666 
L 2328 4666 
z
" transform="scale(0.015625)"/>
       <path id="DejaVuSans-61" d="M 2194 1759 
Q 1497 1759 1228 1600 
Q 959 1441 959 1056 
Q 959 750 1161 570 
Q 1363 391 1709 391 
Q 2188 391 2477 730 
Q 2766 1069 2766 1631 
L 2766 1759 
L 2194 1759 
z
M 3341 1997 
L 3341 0 
L 2766 0 
L 2766 531 
Q 2569 213 2275 61 
Q 1981 -91 1556 -91 
Q 1019 -91 701 211 
Q 384 513 384 1019 
Q 384 1609 779 1909 
Q 1175 2209 1959 2209 
L 2766 2209 
L 2766 2266 
Q 2766 2663 2505 2880 
Q 2244 3097 1772 3097 
Q 1472 3097 1187 3025 
Q 903 2953 641 2809 
L 641 3341 
Q 956 3463 1253 3523 
Q 1550 3584 1831 3584 
Q 2591 3584 2966 3190 
Q 3341 2797 3341 1997 
z
" transform="scale(0.015625)"/>
       <path id="DejaVuSans-6d" d="M 3328 2828 
Q 3544 3216 3844 3400 
Q 4144 3584 4550 3584 
Q 5097 3584 5394 3201 
Q 5691 2819 5691 2113 
L 5691 0 
L 5113 0 
L 5113 2094 
Q 5113 2597 4934 2840 
Q 4756 3084 4391 3084 
Q 3944 3084 3684 2787 
Q 3425 2491 3425 1978 
L 3425 0 
L 2847 0 
L 2847 2094 
Q 2847 2600 2669 2842 
Q 2491 3084 2119 3084 
Q 1678 3084 1418 2786 
Q 1159 2488 1159 1978 
L 1159 0 
L 581 0 
L 581 3500 
L 1159 3500 
L 1159 2956 
Q 1356 3278 1631 3431 
Q 1906 3584 2284 3584 
Q 2666 3584 2933 3390 
Q 3200 3197 3328 2828 
z
" transform="scale(0.015625)"/>
       <path id="DejaVuSans-6b" d="M 581 4863 
L 1159 4863 
L 1159 1991 
L 2875 3500 
L 3609 3500 
L 1753 1863 
L 3688 0 
L 2938 0 
L 1159 1709 
L 1159 0 
L 581 0 
L 581 4863 
z
" transform="scale(0.015625)"/>
      </defs>
      <use xlink:href="#DejaVuSans-49"/>
      <use xlink:href="#DejaVuSans-6e" x="29.492188"/>
      <use xlink:href="#DejaVuSans-74" x="92.871094"/>
      <use xlink:href="#DejaVuSans-65" x="132.080078"/>
      <use xlink:href="#DejaVuSans-6e" x="193.603516"/>
      <use xlink:href="#DejaVuSans-73" x="256.982422"/>
      <use xlink:href="#DejaVuSans-69" x="309.082031"/>
      <use xlink:href="#DejaVuSans-74" x="336.865234"/>
      <use xlink:href="#DejaVuSans-79" x="376.074219"/>
      <use xlink:href="#DejaVuSans-20" x="435.253906"/>
      <use xlink:href="#DejaVuSans-77" x="467.041016"/>
      <use xlink:href="#DejaVuSans-69" x="548.828125"/>
      <use xlink:href="#DejaVuSans-74" x="576.611328"/>
      <use xlink:href="#DejaVuSans-68" x="615.820312"/>
      <use xlink:href="#DejaVuSans-69" x="679.199219"/>
      <use xlink:href="#DejaVuSans-6e" x="706.982422"/>
      <use xlink:href="#DejaVuSans-20" x="770.361328"/>
      <use xlink:href="#DejaVuSans-22" x="802.148438"/>
      <use xlink:href="#DejaVuSans-68" x="848.144531"/>
      <use xlink:href="#DejaVuSans-61" x="911.523438"/>
      <use xlink:href="#DejaVuSans-74" x="972.802734"/>
      <use xlink:href="#DejaVuSans-22" x="1012.011719"/>
      <use xlink:href="#DejaVuSans-20" x="1058.007812"/>
      <use xlink:href="#DejaVuSans-6d" x="1089.794922"/>
      <use xlink:href="#DejaVuSans-61" x="1187.207031"/>
      <use xlink:href="#DejaVuSans-73" x="1248.486328"/>
      <use xlink:href="#DejaVuSans-6b" x="1300.585938"/>
     </g>
    </g>
   </g>
   <g id="matplotlib.axis_2">
    <g id="ytick_1">
     <g id="line2d_7">
      <defs>
       <path id="m6ee10f877a" d="M 0 0 
L -3.5 0 
" style="stroke: #000000; stroke-width: 0.8"/>
      </defs>
      <g>
       <use xlink:href="#m6ee10f877a" x="42.94375" y="266.112" style="stroke: #000000; stroke-width: 0.8"/>
      </g>
     </g>
     <g id="text_8">
      <!-- 0.00 -->
      <g transform="translate(13.678125 269.911219)scale(0.1 -0.1)">
       <defs>
        <path id="DejaVuSans-2e" d="M 684 794 
L 1344 794 
L 1344 0 
L 684 0 
L 684 794 
z
" transform="scale(0.015625)"/>
       </defs>
       <use xlink:href="#DejaVuSans-30"/>
       <use xlink:href="#DejaVuSans-2e" x="63.623047"/>
       <use xlink:href="#DejaVuSans-30" x="95.410156"/>
       <use xlink:href="#DejaVuSans-30" x="159.033203"/>
      </g>
     </g>
    </g>
    <g id="ytick_2">
     <g id="line2d_8">
      <g>
       <use xlink:href="#m6ee10f877a" x="42.94375" y="235.573746" style="stroke: #000000; stroke-width: 0.8"/>
      </g>
     </g>
     <g id="text_9">
      <!-- 0.02 -->
      <g transform="translate(13.678125 239.372964)scale(0.1 -0.1)">
       <use xlink:href="#DejaVuSans-30"/>
       <use xlink:href="#DejaVuSans-2e" x="63.623047"/>
       <use xlink:href="#DejaVuSans-30" x="95.410156"/>
       <use xlink:href="#DejaVuSans-32" x="159.033203"/>
      </g>
     </g>
    </g>
    <g id="ytick_3">
     <g id="line2d_9">
      <g>
       <use xlink:href="#m6ee10f877a" x="42.94375" y="205.035491" style="stroke: #000000; stroke-width: 0.8"/>
      </g>
     </g>
     <g id="text_10">
      <!-- 0.04 -->
      <g transform="translate(13.678125 208.83471)scale(0.1 -0.1)">
       <defs>
        <path id="DejaVuSans-34" d="M 2419 4116 
L 825 1625 
L 2419 1625 
L 2419 4116 
z
M 2253 4666 
L 3047 4666 
L 3047 1625 
L 3713 1625 
L 3713 1100 
L 3047 1100 
L 3047 0 
L 2419 0 
L 2419 1100 
L 313 1100 
L 313 1709 
L 2253 4666 
z
" transform="scale(0.015625)"/>
       </defs>
       <use xlink:href="#DejaVuSans-30"/>
       <use xlink:href="#DejaVuSans-2e" x="63.623047"/>
       <use xlink:href="#DejaVuSans-30" x="95.410156"/>
       <use xlink:href="#DejaVuSans-34" x="159.033203"/>
      </g>
     </g>
    </g>
    <g id="ytick_4">
     <g id="line2d_10">
      <g>
       <use xlink:href="#m6ee10f877a" x="42.94375" y="174.497237" style="stroke: #000000; stroke-width: 0.8"/>
      </g>
     </g>
     <g id="text_11">
      <!-- 0.06 -->
      <g transform="translate(13.678125 178.296455)scale(0.1 -0.1)">
       <defs>
        <path id="DejaVuSans-36" d="M 2113 2584 
Q 1688 2584 1439 2293 
Q 1191 2003 1191 1497 
Q 1191 994 1439 701 
Q 1688 409 2113 409 
Q 2538 409 2786 701 
Q 3034 994 3034 1497 
Q 3034 2003 2786 2293 
Q 2538 2584 2113 2584 
z
M 3366 4563 
L 3366 3988 
Q 3128 4100 2886 4159 
Q 2644 4219 2406 4219 
Q 1781 4219 1451 3797 
Q 1122 3375 1075 2522 
Q 1259 2794 1537 2939 
Q 1816 3084 2150 3084 
Q 2853 3084 3261 2657 
Q 3669 2231 3669 1497 
Q 3669 778 3244 343 
Q 2819 -91 2113 -91 
Q 1303 -91 875 529 
Q 447 1150 447 2328 
Q 447 3434 972 4092 
Q 1497 4750 2381 4750 
Q 2619 4750 2861 4703 
Q 3103 4656 3366 4563 
z
" transform="scale(0.015625)"/>
       </defs>
       <use xlink:href="#DejaVuSans-30"/>
       <use xlink:href="#DejaVuSans-2e" x="63.623047"/>
       <use xlink:href="#DejaVuSans-30" x="95.410156"/>
       <use xlink:href="#DejaVuSans-36" x="159.033203"/>
      </g>
     </g>
    </g>
    <g id="ytick_5">
     <g id="line2d_11">
      <g>
       <use xlink:href="#m6ee10f877a" x="42.94375" y="143.958982" style="stroke: #000000; stroke-width: 0.8"/>
      </g>
     </g>
     <g id="text_12">
      <!-- 0.08 -->
      <g transform="translate(13.678125 147.758201)scale(0.1 -0.1)">
       <defs>
        <path id="DejaVuSans-38" d="M 2034 2216 
Q 1584 2216 1326 1975 
Q 1069 1734 1069 1313 
Q 1069 891 1326 650 
Q 1584 409 2034 409 
Q 2484 409 2743 651 
Q 3003 894 3003 1313 
Q 3003 1734 2745 1975 
Q 2488 2216 2034 2216 
z
M 1403 2484 
Q 997 2584 770 2862 
Q 544 3141 544 3541 
Q 544 4100 942 4425 
Q 1341 4750 2034 4750 
Q 2731 4750 3128 4425 
Q 3525 4100 3525 3541 
Q 3525 3141 3298 2862 
Q 3072 2584 2669 2484 
Q 3125 2378 3379 2068 
Q 3634 1759 3634 1313 
Q 3634 634 3220 271 
Q 2806 -91 2034 -91 
Q 1263 -91 848 271 
Q 434 634 434 1313 
Q 434 1759 690 2068 
Q 947 2378 1403 2484 
z
M 1172 3481 
Q 1172 3119 1398 2916 
Q 1625 2713 2034 2713 
Q 2441 2713 2670 2916 
Q 2900 3119 2900 3481 
Q 2900 3844 2670 4047 
Q 2441 4250 2034 4250 
Q 1625 4250 1398 4047 
Q 1172 3844 1172 3481 
z
" transform="scale(0.015625)"/>
       </defs>
       <use xlink:href="#DejaVuSans-30"/>
       <use xlink:href="#DejaVuSans-2e" x="63.623047"/>
       <use xlink:href="#DejaVuSans-30" x="95.410156"/>
       <use xlink:href="#DejaVuSans-38" x="159.033203"/>
      </g>
     </g>
    </g>
    <g id="ytick_6">
     <g id="line2d_12">
      <g>
       <use xlink:href="#m6ee10f877a" x="42.94375" y="113.420728" style="stroke: #000000; stroke-width: 0.8"/>
      </g>
     </g>
     <g id="text_13">
      <!-- 0.10 -->
      <g transform="translate(13.678125 117.219946)scale(0.1 -0.1)">
       <use xlink:href="#DejaVuSans-30"/>
       <use xlink:href="#DejaVuSans-2e" x="63.623047"/>
       <use xlink:href="#DejaVuSans-31" x="95.410156"/>
       <use xlink:href="#DejaVuSans-30" x="159.033203"/>
      </g>
     </g>
    </g>
    <g id="ytick_7">
     <g id="line2d_13">
      <g>
       <use xlink:href="#m6ee10f877a" x="42.94375" y="82.882473" style="stroke: #000000; stroke-width: 0.8"/>
      </g>
     </g>
     <g id="text_14">
      <!-- 0.12 -->
      <g transform="translate(13.678125 86.681692)scale(0.1 -0.1)">
       <use xlink:href="#DejaVuSans-30"/>
       <use xlink:href="#DejaVuSans-2e" x="63.623047"/>
       <use xlink:href="#DejaVuSans-31" x="95.410156"/>
       <use xlink:href="#DejaVuSans-32" x="159.033203"/>
      </g>
     </g>
    </g>
    <g id="ytick_8">
     <g id="line2d_14">
      <g>
       <use xlink:href="#m6ee10f877a" x="42.94375" y="52.344219" style="stroke: #000000; stroke-width: 0.8"/>
      </g>
     </g>
     <g id="text_15">
      <!-- 0.14 -->
      <g transform="translate(13.678125 56.143438)scale(0.1 -0.1)">
       <use xlink:href="#DejaVuSans-30"/>
       <use xlink:href="#DejaVuSans-2e" x="63.623047"/>
       <use xlink:href="#DejaVuSans-31" x="95.410156"/>
       <use xlink:href="#DejaVuSans-34" x="159.033203"/>
      </g>
     </g>
    </g>
    <g id="ytick_9">
     <g id="line2d_15">
      <g>
       <use xlink:href="#m6ee10f877a" x="42.94375" y="21.805964" style="stroke: #000000; stroke-width: 0.8"/>
      </g>
     </g>
     <g id="text_16">
      <!-- 0.16 -->
      <g transform="translate(13.678125 25.605183)scale(0.1 -0.1)">
       <use xlink:href="#DejaVuSans-30"/>
       <use xlink:href="#DejaVuSans-2e" x="63.623047"/>
       <use xlink:href="#DejaVuSans-31" x="95.410156"/>
       <use xlink:href="#DejaVuSans-36" x="159.033203"/>
      </g>
     </g>
    </g>
    <g id="text_17">
     <!-- Frequency -->
     <g transform="translate(7.598438 158.885687)rotate(-90)scale(0.1 -0.1)">
      <defs>
       <path id="DejaVuSans-46" d="M 628 4666 
L 3309 4666 
L 3309 4134 
L 1259 4134 
L 1259 2759 
L 3109 2759 
L 3109 2228 
L 1259 2228 
L 1259 0 
L 628 0 
L 628 4666 
z
" transform="scale(0.015625)"/>
       <path id="DejaVuSans-72" d="M 2631 2963 
Q 2534 3019 2420 3045 
Q 2306 3072 2169 3072 
Q 1681 3072 1420 2755 
Q 1159 2438 1159 1844 
L 1159 0 
L 581 0 
L 581 3500 
L 1159 3500 
L 1159 2956 
Q 1341 3275 1631 3429 
Q 1922 3584 2338 3584 
Q 2397 3584 2469 3576 
Q 2541 3569 2628 3553 
L 2631 2963 
z
" transform="scale(0.015625)"/>
       <path id="DejaVuSans-71" d="M 947 1747 
Q 947 1113 1208 752 
Q 1469 391 1925 391 
Q 2381 391 2643 752 
Q 2906 1113 2906 1747 
Q 2906 2381 2643 2742 
Q 2381 3103 1925 3103 
Q 1469 3103 1208 2742 
Q 947 2381 947 1747 
z
M 2906 525 
Q 2725 213 2448 61 
Q 2172 -91 1784 -91 
Q 1150 -91 751 415 
Q 353 922 353 1747 
Q 353 2572 751 3078 
Q 1150 3584 1784 3584 
Q 2172 3584 2448 3432 
Q 2725 3281 2906 2969 
L 2906 3500 
L 3481 3500 
L 3481 -1331 
L 2906 -1331 
L 2906 525 
z
" transform="scale(0.015625)"/>
       <path id="DejaVuSans-75" d="M 544 1381 
L 544 3500 
L 1119 3500 
L 1119 1403 
Q 1119 906 1312 657 
Q 1506 409 1894 409 
Q 2359 409 2629 706 
Q 2900 1003 2900 1516 
L 2900 3500 
L 3475 3500 
L 3475 0 
L 2900 0 
L 2900 538 
Q 2691 219 2414 64 
Q 2138 -91 1772 -91 
Q 1169 -91 856 284 
Q 544 659 544 1381 
z
M 1991 3584 
L 1991 3584 
z
" transform="scale(0.015625)"/>
       <path id="DejaVuSans-63" d="M 3122 3366 
L 3122 2828 
Q 2878 2963 2633 3030 
Q 2388 3097 2138 3097 
Q 1578 3097 1268 2742 
Q 959 2388 959 1747 
Q 959 1106 1268 751 
Q 1578 397 2138 397 
Q 2388 397 2633 464 
Q 2878 531 3122 666 
L 3122 134 
Q 2881 22 2623 -34 
Q 2366 -91 2075 -91 
Q 1284 -91 818 406 
Q 353 903 353 1747 
Q 353 2603 823 3093 
Q 1294 3584 2113 3584 
Q 2378 3584 2631 3529 
Q 2884 3475 3122 3366 
z
" transform="scale(0.015625)"/>
      </defs>
      <use xlink:href="#DejaVuSans-46"/>
      <use xlink:href="#DejaVuSans-72" x="50.269531"/>
      <use xlink:href="#DejaVuSans-65" x="89.132812"/>
      <use xlink:href="#DejaVuSans-71" x="150.65625"/>
      <use xlink:href="#DejaVuSans-75" x="214.132812"/>
      <use xlink:href="#DejaVuSans-65" x="277.511719"/>
      <use xlink:href="#DejaVuSans-6e" x="339.035156"/>
      <use xlink:href="#DejaVuSans-63" x="402.414062"/>
      <use xlink:href="#DejaVuSans-79" x="457.394531"/>
     </g>
    </g>
   </g>
   <g id="line2d_16">
    <path d="M 42.94375 264.473122 
L 46.161047 263.741218 
L 49.020867 262.879116 
L 51.880687 261.775369 
L 54.383029 260.577454 
L 56.885372 259.132163 
L 59.387714 257.41091 
L 61.890056 255.387023 
L 64.392399 253.03699 
L 66.894741 250.341691 
L 69.397083 247.287535 
L 71.899426 243.867425 
L 74.401768 240.081473 
L 77.261588 235.317001 
L 80.121408 230.10904 
L 83.338705 223.7662 
L 86.91348 216.200889 
L 91.203209 206.567295 
L 97.637804 191.486518 
L 105.502309 173.172012 
L 109.792038 163.745428 
L 113.366813 156.394535 
L 116.58411 150.259939 
L 119.44393 145.239314 
L 122.30375 140.659382 
L 124.806092 137.032565 
L 127.308435 133.77292 
L 129.810777 130.887276 
L 132.313119 128.378242 
L 134.457984 126.526427 
L 136.602849 124.947233 
L 138.747714 123.635693 
L 140.892579 122.585184 
L 143.037444 121.787688 
L 145.182309 121.234099 
L 147.327173 120.91457 
L 149.472038 120.818853 
L 151.616903 120.936629 
L 153.761768 121.257783 
L 156.26411 121.876592 
L 158.766453 122.744541 
L 161.268795 123.84816 
L 163.771137 125.174866 
L 166.630957 126.948933 
L 169.490777 128.981311 
L 172.708074 131.554622 
L 175.925372 134.406784 
L 179.500146 137.869928 
L 183.432399 141.99184 
L 188.079606 147.21317 
L 193.441768 153.593333 
L 201.306273 163.343366 
L 213.103029 177.946195 
L 219.180146 185.104825 
L 224.899786 191.491541 
L 230.261948 197.137948 
L 235.62411 202.451056 
L 240.986273 207.444167 
L 246.348435 212.137057 
L 251.710597 216.546598 
L 257.072759 220.680742 
L 262.434921 224.539014 
L 267.797083 228.11919 
L 273.159245 231.425796 
L 278.521408 234.474856 
L 284.241047 237.472302 
L 290.318164 240.406023 
L 296.752759 243.264404 
L 303.187354 245.885357 
L 309.621948 248.271718 
L 316.056543 250.421969 
L 322.491137 252.338787 
L 329.283209 254.120402 
L 336.432759 255.751285 
L 343.939786 257.229259 
L 352.161768 258.613869 
L 360.741227 259.829731 
L 369.678164 260.873353 
L 380.045011 261.851435 
L 392.556723 262.800962 
L 400.06375 263.276295 
L 400.06375 263.276295 
" clip-path="url(#pcad357c667)" style="fill: none; stroke: #1e90ff; stroke-opacity: 0.5; stroke-width: 2; stroke-linecap: square"/>
   </g>
   <g id="line2d_17">
    <path d="M 42.94375 265.888752 
L 46.876002 265.566946 
L 50.0933 265.095571 
L 52.953119 264.454368 
L 55.455462 263.673969 
L 57.957804 262.646164 
L 60.102669 261.53743 
L 62.247534 260.192383 
L 64.392399 258.588008 
L 66.537264 256.703613 
L 68.682128 254.521435 
L 70.826993 252.027179 
L 72.971858 249.210451 
L 75.116723 246.065093 
L 77.619065 241.978144 
L 80.121408 237.446944 
L 82.62375 232.485137 
L 85.48357 226.315633 
L 88.700867 218.793559 
L 92.275642 209.810856 
L 96.565372 198.349961 
L 102.285011 182.357212 
L 111.936903 155.329459 
L 116.226633 144.017359 
L 119.801408 135.19208 
L 123.018705 127.830932 
L 125.878525 121.817857 
L 128.738345 116.353018 
L 131.240687 112.051273 
L 133.743029 108.218704 
L 135.887894 105.318504 
L 138.032759 102.780481 
L 140.177624 100.608468 
L 141.965011 99.079079 
L 143.752399 97.804326 
L 145.539786 96.782622 
L 147.327173 96.011348 
L 149.114561 95.486927 
L 150.901948 95.204883 
L 152.689336 95.159917 
L 154.476723 95.345974 
L 156.26411 95.756318 
L 158.051498 96.383597 
L 159.838885 97.219919 
L 161.98375 98.487637 
L 164.128615 100.029099 
L 166.27348 101.828419 
L 168.775822 104.231613 
L 171.278164 106.936752 
L 174.137984 110.363333 
L 177.355282 114.596873 
L 180.930056 119.70388 
L 184.862309 125.723128 
L 189.509516 133.249447 
L 195.94411 144.1427 
L 213.817984 174.689104 
L 219.537624 183.914937 
L 224.899786 192.134488 
L 229.546993 198.872298 
L 234.1942 205.22276 
L 238.48393 210.726162 
L 242.77366 215.878553 
L 247.06339 220.679039 
L 251.353119 225.13143 
L 255.642849 229.243413 
L 259.932579 233.025803 
L 264.222309 236.491848 
L 268.512038 239.656617 
L 272.801768 242.536467 
L 277.091498 245.148568 
L 281.381227 247.510512 
L 286.028435 249.807486 
L 290.675642 251.853826 
L 295.680327 253.802071 
L 300.685011 255.510626 
L 306.047173 257.103083 
L 311.766813 258.561157 
L 317.84393 259.872648 
L 324.278525 261.0314 
L 331.428074 262.084368 
L 339.292579 263.006776 
L 347.872038 263.78612 
L 357.881408 264.462642 
L 369.320687 265.007468 
L 383.262309 265.441838 
L 400.06375 265.7504 
L 400.06375 265.7504 
" clip-path="url(#pcad357c667)" style="fill: none; stroke: #ff8c00; stroke-opacity: 0.5; stroke-width: 2; stroke-linecap: square"/>
   </g>
   <g id="line2d_18">
    <path d="M 227.044651 266.112 
L 227.044651 193.790389 
" clip-path="url(#pcad357c667)" style="fill: none; stroke: #1e90ff; stroke-width: 1.5; stroke-linecap: square"/>
   </g>
   <g id="patch_4">
    <path d="M 42.94375 266.112 
L 42.94375 -0 
" style="fill: none; stroke: #000000; stroke-width: 0.8; stroke-linejoin: miter; stroke-linecap: square"/>
   </g>
   <g id="patch_5">
    <path d="M 400.06375 266.112 
L 400.06375 -0 
" style="fill: none; stroke: #000000; stroke-width: 0.8; stroke-linejoin: miter; stroke-linecap: square"/>
   </g>
   <g id="patch_6">
    <path d="M 42.94375 266.112 
L 400.06375 266.112 
" style="fill: none; stroke: #000000; stroke-width: 0.8; stroke-linejoin: miter; stroke-linecap: square"/>
   </g>
   <g id="patch_7">
    <path d="M 42.94375 -0 
L 400.06375 -0 
" style="fill: none; stroke: #000000; stroke-width: 0.8; stroke-linejoin: miter; stroke-linecap: square"/>
   </g>
   <g id="legend_1">
    <g id="patch_8">
     <path d="M 301.921562 37.35625 
L 393.06375 37.35625 
Q 395.06375 37.35625 395.06375 35.35625 
L 395.06375 7 
Q 395.06375 5 393.06375 5 
L 301.921562 5 
Q 299.921562 5 299.921562 7 
L 299.921562 35.35625 
Q 299.921562 37.35625 301.921562 37.35625 
z
" style="fill: #ffffff; opacity: 0.8; stroke: #cccccc; stroke-linejoin: miter"/>
    </g>
    <g id="line2d_19">
     <path d="M 303.921562 13.098437 
L 313.921562 13.098437 
L 323.921562 13.098437 
" style="fill: none; stroke: #1e90ff; stroke-opacity: 0.5; stroke-width: 2; stroke-linecap: square"/>
    </g>
    <g id="text_18">
     <!-- background -->
     <g transform="translate(331.921562 16.598437)scale(0.1 -0.1)">
      <defs>
       <path id="DejaVuSans-62" d="M 3116 1747 
Q 3116 2381 2855 2742 
Q 2594 3103 2138 3103 
Q 1681 3103 1420 2742 
Q 1159 2381 1159 1747 
Q 1159 1113 1420 752 
Q 1681 391 2138 391 
Q 2594 391 2855 752 
Q 3116 1113 3116 1747 
z
M 1159 2969 
Q 1341 3281 1617 3432 
Q 1894 3584 2278 3584 
Q 2916 3584 3314 3078 
Q 3713 2572 3713 1747 
Q 3713 922 3314 415 
Q 2916 -91 2278 -91 
Q 1894 -91 1617 61 
Q 1341 213 1159 525 
L 1159 0 
L 581 0 
L 581 4863 
L 1159 4863 
L 1159 2969 
z
" transform="scale(0.015625)"/>
       <path id="DejaVuSans-67" d="M 2906 1791 
Q 2906 2416 2648 2759 
Q 2391 3103 1925 3103 
Q 1463 3103 1205 2759 
Q 947 2416 947 1791 
Q 947 1169 1205 825 
Q 1463 481 1925 481 
Q 2391 481 2648 825 
Q 2906 1169 2906 1791 
z
M 3481 434 
Q 3481 -459 3084 -895 
Q 2688 -1331 1869 -1331 
Q 1566 -1331 1297 -1286 
Q 1028 -1241 775 -1147 
L 775 -588 
Q 1028 -725 1275 -790 
Q 1522 -856 1778 -856 
Q 2344 -856 2625 -561 
Q 2906 -266 2906 331 
L 2906 616 
Q 2728 306 2450 153 
Q 2172 0 1784 0 
Q 1141 0 747 490 
Q 353 981 353 1791 
Q 353 2603 747 3093 
Q 1141 3584 1784 3584 
Q 2172 3584 2450 3431 
Q 2728 3278 2906 2969 
L 2906 3500 
L 3481 3500 
L 3481 434 
z
" transform="scale(0.015625)"/>
       <path id="DejaVuSans-6f" d="M 1959 3097 
Q 1497 3097 1228 2736 
Q 959 2375 959 1747 
Q 959 1119 1226 758 
Q 1494 397 1959 397 
Q 2419 397 2687 759 
Q 2956 1122 2956 1747 
Q 2956 2369 2687 2733 
Q 2419 3097 1959 3097 
z
M 1959 3584 
Q 2709 3584 3137 3096 
Q 3566 2609 3566 1747 
Q 3566 888 3137 398 
Q 2709 -91 1959 -91 
Q 1206 -91 779 398 
Q 353 888 353 1747 
Q 353 2609 779 3096 
Q 1206 3584 1959 3584 
z
" transform="scale(0.015625)"/>
       <path id="DejaVuSans-64" d="M 2906 2969 
L 2906 4863 
L 3481 4863 
L 3481 0 
L 2906 0 
L 2906 525 
Q 2725 213 2448 61 
Q 2172 -91 1784 -91 
Q 1150 -91 751 415 
Q 353 922 353 1747 
Q 353 2572 751 3078 
Q 1150 3584 1784 3584 
Q 2172 3584 2448 3432 
Q 2725 3281 2906 2969 
z
M 947 1747 
Q 947 1113 1208 752 
Q 1469 391 1925 391 
Q 2381 391 2643 752 
Q 2906 1113 2906 1747 
Q 2906 2381 2643 2742 
Q 2381 3103 1925 3103 
Q 1469 3103 1208 2742 
Q 947 2381 947 1747 
z
" transform="scale(0.015625)"/>
      </defs>
      <use xlink:href="#DejaVuSans-62"/>
      <use xlink:href="#DejaVuSans-61" x="63.476562"/>
      <use xlink:href="#DejaVuSans-63" x="124.755859"/>
      <use xlink:href="#DejaVuSans-6b" x="179.736328"/>
      <use xlink:href="#DejaVuSans-67" x="237.646484"/>
      <use xlink:href="#DejaVuSans-72" x="301.123047"/>
      <use xlink:href="#DejaVuSans-6f" x="339.986328"/>
      <use xlink:href="#DejaVuSans-75" x="401.167969"/>
      <use xlink:href="#DejaVuSans-6e" x="464.546875"/>
      <use xlink:href="#DejaVuSans-64" x="527.925781"/>
     </g>
    </g>
    <g id="line2d_20">
     <path d="M 303.921562 27.776562 
L 313.921562 27.776562 
L 323.921562 27.776562 
" style="fill: none; stroke: #ff8c00; stroke-opacity: 0.5; stroke-width: 2; stroke-linecap: square"/>
    </g>
    <g id="text_19">
     <!-- chi2 -->
     <g transform="translate(331.921562 31.276562)scale(0.1 -0.1)">
      <use xlink:href="#DejaVuSans-63"/>
      <use xlink:href="#DejaVuSans-68" x="54.980469"/>
      <use xlink:href="#DejaVuSans-69" x="118.359375"/>
      <use xlink:href="#DejaVuSans-32" x="146.142578"/>
     </g>
    </g>
   </g>
  </g>
 </g>
 <defs>
  <clipPath id="pcad357c667">
   <rect x="42.94375" y="-0" width="357.12" height="266.112"/>
  </clipPath>
 </defs>
</svg>
