<?xml version="1.0" encoding="utf-8" standalone="no"?>
<!DOCTYPE svg PUBLIC "-//W3C//DTD SVG 1.1//EN"
  "http://www.w3.org/Graphics/SVG/1.1/DTD/svg11.dtd">
<svg xmlns:xlink="http://www.w3.org/1999/xlink" width="400.06375pt" height="296.46825pt" viewBox="0 0 400.06375 296.46825" xmlns="http://www.w3.org/2000/svg" version="1.1">
 <metadata>
  <rdf:RDF xmlns:dc="http://purl.org/dc/elements/1.1/" xmlns:cc="http://creativecommons.org/ns#" xmlns:rdf="http://www.w3.org/1999/02/22-rdf-syntax-ns#">
   <cc:Work>
    <dc:type rdf:resource="http://purl.org/dc/dcmitype/StillImage"/>
    <dc:date>2023-11-09T15:03:27.134109</dc:date>
    <dc:format>image/svg+xml</dc:format>
    <dc:creator>
     <cc:Agent>
      <dc:title>Matplotlib v3.5.2, https://matplotlib.org/</dc:title>
     </cc:Agent>
    </dc:creator>
   </cc:Work>
  </rdf:RDF>
 </metadata>
 <defs>
  <style type="text/css">*{stroke-linejoin: round; stroke-linecap: butt}</style>
 </defs>
 <g id="figure_1">
  <g id="patch_1">
   <path d="M 0 296.46825 
L 400.06375 296.46825 
L 400.06375 0 
L 0 0 
z
" style="fill: #ffffff"/>
  </g>
  <g id="axes_1">
   <g id="patch_2">
    <path d="M 42.94375 266.112 
L 400.06375 266.112 
L 400.06375 -0 
L 42.94375 -0 
z
" style="fill: #ffffff"/>
   </g>
   <g id="patch_3">
    <path d="M 54.10375 266.112 
L 54.10375 190.109202 
L 77.6095 190.109202 
L 77.6095 56.128552 
L 101.11525 56.128552 
L 101.11525 39.281331 
L 124.621 39.281331 
L 124.621 94.164062 
L 148.12675 94.164062 
L 148.12675 146.817014 
L 171.6325 146.817014 
L 171.6325 183.014123 
L 195.13825 183.014123 
L 195.13825 208.055155 
L 218.644 208.055155 
L 218.644 225.164492 
L 242.14975 225.164492 
L 242.14975 237.742457 
L 265.6555 237.742457 
L 265.6555 240.298984 
L 289.16125 240.298984 
L 289.16125 256.140829 
L 312.667 256.140829 
L 312.667 259.620147 
L 336.17275 259.620147 
L 336.17275 261.677576 
L 359.6785 261.677576 
L 359.6785 263.038423 
L 383.18425 263.038423 
L 383.18425 263.849905 
L 406.69 263.849905 
L 406.69 264.413634 
L 430.19575 264.413634 
L 430.19575 264.718837 
L 453.7015 264.718837 
L 453.7015 265.020449 
L 477.20725 265.020449 
L 477.20725 264.927093 
L 500.713 264.927093 
L 500.713 265.515956 
L 524.21875 265.515956 
L 524.21875 265.587768 
L 547.7245 265.587768 
L 547.7245 265.734984 
L 571.23025 265.734984 
L 571.23025 265.684715 
L 594.736 265.684715 
L 594.736 265.763709 
L 618.24175 265.763709 
L 618.24175 265.878609 
L 641.7475 265.878609 
L 641.7475 265.875019 
L 665.25325 265.875019 
L 665.25325 265.946831 
L 688.759 265.946831 
L 688.759 265.986328 
L 712.26475 265.986328 
L 712.26475 265.878609 
L 735.7705 265.878609 
L 735.7705 265.993509 
L 759.27625 265.993509 
L 759.27625 266.022234 
L 782.782 266.022234 
L 782.782 266.033006 
L 806.28775 266.033006 
L 806.28775 266.029416 
L 829.7935 266.029416 
L 829.7935 266.061731 
L 853.29925 266.061731 
L 853.29925 266.072503 
L 876.805 266.072503 
L 876.805 266.083275 
L 900.31075 266.083275 
L 900.31075 266.065322 
L 923.8165 266.065322 
L 923.8165 266.05455 
L 947.32225 266.05455 
L 947.32225 266.090456 
L 970.828 266.090456 
L 970.828 266.065322 
L 994.33375 266.065322 
L 994.33375 266.058141 
L 1017.8395 266.058141 
L 1017.8395 266.079684 
L 1041.34525 266.079684 
L 1041.34525 266.101228 
L 1064.851 266.101228 
L 1064.851 266.076094 
L 1088.35675 266.076094 
L 1088.35675 266.086866 
L 1111.8625 266.086866 
L 1111.8625 266.094047 
L 1135.36825 266.094047 
L 1135.36825 266.097637 
L 1158.874 266.097637 
L 1158.874 266.083275 
L 1182.37975 266.083275 
L 1182.37975 266.083275 
L 1205.8855 266.083275 
L 1205.8855 266.101228 
L 1229.39125 266.101228 
L 1229.39125 266.086866 
L 1252.897 266.086866 
L 1252.897 266.108409 
L 1276.40275 266.108409 
L 1276.40275 266.097637 
L 1299.9085 266.097637 
L 1299.9085 266.108409 
L 1323.41425 266.108409 
L 1323.41425 266.101228 
L 1346.92 266.101228 
L 1346.92 266.086866 
L 1370.42575 266.086866 
L 1370.42575 266.108409 
L 1393.9315 266.108409 
L 1393.9315 266.090456 
L 1417.43725 266.090456 
L 1417.43725 266.104819 
L 1440.943 266.104819 
L 1440.943 266.108409 
L 1464.44875 266.108409 
L 1464.44875 266.097637 
L 1487.9545 266.097637 
L 1487.9545 266.090456 
L 1511.46025 266.090456 
L 1511.46025 266.101228 
L 1534.966 266.101228 
L 1534.966 266.101228 
L 1558.47175 266.101228 
L 1558.47175 266.104819 
L 1581.9775 266.104819 
L 1581.9775 266.090456 
L 1605.48325 266.090456 
L 1605.48325 266.108409 
L 1628.989 266.108409 
L 1628.989 266.104819 
L 1652.49475 266.104819 
L 1652.49475 266.104819 
L 1676.0005 266.104819 
L 1676.0005 266.101228 
L 1699.50625 266.101228 
L 1699.50625 266.108409 
L 1723.012 266.108409 
L 1723.012 266.108409 
L 1746.51775 266.108409 
L 1746.51775 266.108409 
L 1770.0235 266.108409 
L 1770.0235 266.104819 
L 1793.52925 266.104819 
L 1793.52925 266.108409 
L 1817.035 266.108409 
L 1817.035 266.112 
L 1840.54075 266.112 
L 1840.54075 266.108409 
L 1864.0465 266.108409 
L 1864.0465 266.097637 
L 1887.55225 266.097637 
L 1887.55225 266.101228 
L 1911.058 266.101228 
L 1911.058 266.101228 
L 1934.56375 266.101228 
L 1934.56375 266.101228 
L 1958.0695 266.101228 
L 1958.0695 266.104819 
L 1981.57525 266.104819 
L 1981.57525 266.090456 
L 2005.081 266.090456 
L 2005.081 266.112 
L 2028.58675 266.112 
L 2028.58675 266.101228 
L 2052.0925 266.101228 
L 2052.0925 266.112 
L 2075.59825 266.112 
L 2075.59825 266.112 
L 2099.104 266.112 
L 2099.104 266.112 
L 2122.60975 266.112 
L 2122.60975 266.108409 
L 2146.1155 266.108409 
L 2146.1155 266.108409 
L 2169.62125 266.108409 
L 2169.62125 266.108409 
L 2193.127 266.108409 
L 2193.127 266.112 
L 2216.63275 266.112 
L 2216.63275 266.104819 
L 2240.1385 266.104819 
L 2240.1385 266.112 
L 2263.64425 266.112 
L 2263.64425 266.101228 
L 2287.15 266.101228 
L 2287.15 266.104819 
L 2310.65575 266.104819 
L 2310.65575 266.108409 
L 2334.1615 266.108409 
L 2334.1615 266.101228 
L 2357.66725 266.101228 
L 2357.66725 266.112 
L 2381.173 266.112 
L 2381.173 266.112 
L 2404.67875 266.112 
L 2404.67875 266.108409 
L 2428.1845 266.108409 
L 2428.1845 266.108409 
L 2451.69025 266.108409 
L 2451.69025 266.097637 
L 2475.196 266.097637 
L 2475.196 266.108409 
L 2498.70175 266.108409 
L 2498.70175 266.104819 
L 2522.2075 266.104819 
L 2522.2075 266.108409 
L 2545.71325 266.108409 
L 2545.71325 266.104819 
L 2569.219 266.104819 
L 2569.219 266.112 
L 2592.72475 266.112 
L 2592.72475 266.112 
L 2616.2305 266.112 
L 2616.2305 266.104819 
L 2639.73625 266.104819 
L 2639.73625 266.104819 
L 2663.242 266.104819 
L 2663.242 266.112 
L 2686.74775 266.112 
L 2686.74775 266.108409 
L 2710.2535 266.108409 
L 2710.2535 266.108409 
L 2733.75925 266.108409 
L 2733.75925 266.108409 
L 2757.265 266.108409 
L 2757.265 266.112 
L 2780.77075 266.112 
L 2780.77075 266.108409 
L 2804.2765 266.108409 
L 2804.2765 266.101228 
L 2827.78225 266.101228 
L 2827.78225 266.108409 
L 2851.288 266.108409 
L 2851.288 266.108409 
L 2874.79375 266.108409 
L 2874.79375 266.108409 
L 2898.2995 266.108409 
L 2898.2995 266.101228 
L 2921.80525 266.101228 
L 2921.80525 266.104819 
L 2945.311 266.104819 
L 2945.311 266.112 
L 2968.81675 266.112 
L 2968.81675 266.108409 
L 2992.3225 266.108409 
L 2992.3225 266.112 
L 3015.82825 266.112 
L 3015.82825 266.101228 
L 3039.334 266.101228 
L 3039.334 266.108409 
L 3062.83975 266.108409 
L 3062.83975 266.108409 
L 3086.3455 266.108409 
L 3086.3455 266.108409 
L 3109.85125 266.108409 
L 3109.85125 266.108409 
L 3133.357 266.108409 
L 3133.357 266.112 
L 3156.86275 266.112 
L 3156.86275 266.108409 
L 3180.3685 266.108409 
L 3180.3685 266.112 
L 3203.87425 266.112 
L 3203.87425 266.108409 
L 3227.38 266.108409 
L 3227.38 266.108409 
L 3250.88575 266.108409 
L 3250.88575 266.101228 
L 3274.3915 266.101228 
L 3274.3915 266.108409 
L 3297.89725 266.108409 
L 3297.89725 266.104819 
L 3321.403 266.104819 
L 3321.403 266.101228 
L 3344.90875 266.101228 
L 3344.90875 266.112 
L 3368.4145 266.112 
L 3368.4145 266.112 
L 3391.92025 266.112 
L 3391.92025 266.112 
L 3415.426 266.112 
L 3415.426 266.112 
L 3438.93175 266.112 
L 3438.93175 266.101228 
L 3462.4375 266.101228 
L 3462.4375 266.108409 
L 3485.94325 266.108409 
L 3485.94325 266.112 
L 3509.449 266.112 
L 3509.449 266.112 
L 3532.95475 266.112 
L 3532.95475 266.104819 
L 3556.4605 266.104819 
L 3556.4605 266.104819 
L 3579.96625 266.104819 
L 3579.96625 266.097637 
L 3603.472 266.097637 
L 3603.472 266.112 
L 3626.97775 266.112 
L 3626.97775 266.108409 
L 3650.4835 266.108409 
L 3650.4835 266.112 
L 3673.98925 266.112 
L 3673.98925 266.112 
L 3697.495 266.112 
L 3697.495 266.112 
L 3721.00075 266.112 
L 3721.00075 266.112 
L 3744.5065 266.112 
L 3744.5065 266.112 
L 3768.01225 266.112 
L 3768.01225 266.112 
L 3791.518 266.112 
L 3791.518 266.112 
L 3815.02375 266.112 
L 3815.02375 266.108409 
L 3838.5295 266.108409 
L 3838.5295 266.112 
L 3862.03525 266.112 
L 3862.03525 266.112 
L 3885.541 266.112 
L 3885.541 266.108409 
L 3909.04675 266.108409 
L 3909.04675 266.112 
L 3932.5525 266.112 
L 3932.5525 266.112 
L 3956.05825 266.112 
L 3956.05825 266.101228 
L 3979.564 266.101228 
L 3979.564 266.112 
L 4003.06975 266.112 
L 4003.06975 266.108409 
L 4026.5755 266.108409 
L 4026.5755 266.112 
L 4050.08125 266.112 
L 4050.08125 266.108409 
L 4073.587 266.108409 
L 4073.587 266.104819 
L 4097.09275 266.104819 
L 4097.09275 266.104819 
L 4120.5985 266.104819 
L 4120.5985 266.112 
L 4144.10425 266.112 
L 4144.10425 266.112 
L 4167.61 266.112 
L 4167.61 266.108409 
L 4191.11575 266.108409 
L 4191.11575 266.112 
L 4214.6215 266.112 
L 4214.6215 266.112 
L 4238.12725 266.112 
L 4238.12725 266.112 
L 4261.633 266.112 
L 4261.633 266.108409 
L 4285.13875 266.108409 
L 4285.13875 266.112 
L 4308.6445 266.112 
L 4308.6445 266.112 
L 4332.15025 266.112 
L 4332.15025 266.108409 
L 4355.656 266.108409 
L 4355.656 266.112 
L 4379.16175 266.112 
L 4379.16175 266.104819 
L 4402.6675 266.104819 
L 4402.6675 266.108409 
L 4426.17325 266.108409 
L 4426.17325 266.112 
L 4449.679 266.112 
L 4449.679 266.108409 
L 4473.18475 266.108409 
L 4473.18475 266.104819 
L 4496.6905 266.104819 
L 4496.6905 266.108409 
L 4520.19625 266.108409 
L 4520.19625 266.108409 
L 4543.702 266.108409 
L 4543.702 266.112 
L 4567.20775 266.112 
L 4567.20775 266.108409 
L 4590.7135 266.108409 
L 4590.7135 266.108409 
L 4614.21925 266.108409 
L 4614.21925 266.108409 
L 4637.725 266.108409 
L 4637.725 266.112 
L 4661.23075 266.112 
L 4661.23075 266.108409 
L 4684.7365 266.108409 
L 4684.7365 266.104819 
L 4708.24225 266.104819 
L 4708.24225 266.108409 
L 4731.748 266.108409 
L 4731.748 266.108409 
L 4755.25375 266.108409 
L 4755.25375 266.112 
L 4778.7595 266.112 
L 4778.7595 266.112 
L 4802.26525 266.112 
L 4802.26525 266.112 
L 4825.771 266.112 
L 4825.771 266.112 
L 4849.27675 266.112 
L 4849.27675 266.108409 
L 4872.7825 266.108409 
L 4872.7825 266.101228 
L 4896.28825 266.101228 
L 4896.28825 266.108409 
L 4919.794 266.108409 
L 4919.794 266.104819 
L 4943.29975 266.104819 
L 4943.29975 266.108409 
L 4966.8055 266.108409 
L 4966.8055 266.108409 
L 4990.31125 266.108409 
L 4990.31125 266.104819 
L 5013.817 266.104819 
L 5013.817 266.112 
L 5037.32275 266.112 
L 5037.32275 266.108409 
L 5060.8285 266.108409 
L 5060.8285 266.108409 
L 5084.33425 266.108409 
L 5084.33425 266.112 
L 5107.84 266.112 
L 5107.84 266.104819 
L 5131.34575 266.104819 
L 5131.34575 266.112 
L 5154.8515 266.112 
L 5154.8515 266.112 
L 5178.35725 266.112 
L 5178.35725 266.104819 
L 5201.863 266.104819 
L 5201.863 266.108409 
L 5225.36875 266.108409 
L 5225.36875 266.104819 
L 5248.8745 266.104819 
L 5248.8745 266.108409 
L 5272.38025 266.108409 
L 5272.38025 266.108409 
L 5295.886 266.108409 
L 5295.886 266.104819 
L 5319.39175 266.104819 
L 5319.39175 266.108409 
L 5342.8975 266.108409 
L 5342.8975 266.108409 
L 5366.40325 266.108409 
L 5366.40325 266.112 
L 5389.909 266.112 
L 5389.909 266.104819 
L 5413.41475 266.104819 
L 5413.41475 266.112 
L 5436.9205 266.112 
L 5436.9205 266.104819 
L 5460.42625 266.104819 
L 5460.42625 266.104819 
L 5483.932 266.104819 
L 5483.932 266.112 
L 5507.43775 266.112 
L 5507.43775 266.108409 
L 5530.9435 266.108409 
L 5530.9435 266.108409 
L 5554.44925 266.108409 
L 5554.44925 266.108409 
L 5577.955 266.108409 
L 5577.955 266.101228 
L 5601.46075 266.101228 
L 5601.46075 266.108409 
L 5624.9665 266.108409 
L 5624.9665 266.112 
L 5648.47225 266.112 
L 5648.47225 266.108409 
L 5671.978 266.108409 
L 5671.978 266.104819 
L 5695.48375 266.104819 
L 5695.48375 266.112 
L 5718.9895 266.112 
L 5718.9895 266.101228 
L 5742.49525 266.101228 
L 5742.49525 266.112 
L 5766.001 266.112 
L 5766.001 266.108409 
L 5789.50675 266.108409 
L 5789.50675 266.112 
L 5813.0125 266.112 
L 5813.0125 266.112 
L 5836.51825 266.112 
L 5836.51825 266.108409 
L 5860.024 266.108409 
L 5860.024 266.104819 
L 5883.52975 266.104819 
L 5883.52975 266.108409 
L 5907.0355 266.108409 
L 5907.0355 266.108409 
L 5930.54125 266.108409 
L 5930.54125 266.104819 
L 5954.047 266.104819 
L 5954.047 266.112 
L 5977.55275 266.112 
L 5977.55275 266.112 
L 6001.0585 266.112 
L 6001.0585 266.112 
L 6024.56425 266.112 
L 6024.56425 266.108409 
L 6048.07 266.108409 
L 6048.07 266.108409 
L 6071.57575 266.108409 
L 6071.57575 266.108409 
L 6095.0815 266.108409 
L 6095.0815 266.112 
L 6118.58725 266.112 
L 6118.58725 266.108409 
L 6142.093 266.108409 
L 6142.093 266.104819 
L 6165.59875 266.104819 
L 6165.59875 266.104819 
L 6189.1045 266.104819 
L 6189.1045 266.108409 
L 6212.61025 266.108409 
L 6212.61025 266.108409 
L 6236.116 266.108409 
L 6236.116 266.104819 
L 6259.62175 266.104819 
L 6259.62175 266.112 
L 6283.1275 266.112 
L 6283.1275 266.108409 
L 6306.63325 266.108409 
L 6306.63325 266.112 
L 6330.139 266.112 
L 6330.139 266.108409 
L 6353.64475 266.108409 
L 6353.64475 266.112 
L 6377.1505 266.112 
L 6377.1505 266.112 
L 6400.65625 266.112 
L 6400.65625 266.104819 
L 6424.162 266.104819 
L 6424.162 266.108409 
L 6447.66775 266.108409 
L 6447.66775 266.108409 
L 6471.1735 266.108409 
L 6471.1735 266.104819 
L 6494.67925 266.104819 
L 6494.67925 266.112 
L 6518.185 266.112 
L 6518.185 266.108409 
L 6541.69075 266.108409 
L 6541.69075 266.112 
L 6565.1965 266.112 
L 6565.1965 266.104819 
L 6588.70225 266.104819 
L 6588.70225 266.108409 
L 6612.208 266.108409 
L 6612.208 266.108409 
L 6635.71375 266.108409 
L 6635.71375 266.112 
L 6659.2195 266.112 
L 6659.2195 266.112 
L 6682.72525 266.112 
L 6682.72525 266.112 
L 6706.231 266.112 
L 6706.231 266.112 
L 6729.73675 266.112 
L 6729.73675 266.108409 
L 6753.2425 266.108409 
L 6753.2425 266.112 
L 6776.74825 266.112 
L 6776.74825 266.112 
L 6800.254 266.112 
L 6800.254 266.112 
L 6823.75975 266.112 
L 6823.75975 266.101228 
L 6847.2655 266.101228 
L 6847.2655 266.108409 
L 6870.77125 266.108409 
L 6870.77125 266.112 
L 6894.277 266.112 
L 6894.277 266.112 
L 6917.78275 266.112 
L 6917.78275 266.112 
L 6941.2885 266.112 
L 6941.2885 266.108409 
L 6964.79425 266.108409 
L 6964.79425 266.112 
L 6988.3 266.112 
L 6988.3 266.104819 
L 7011.80575 266.104819 
L 7011.80575 266.112 
L 7035.3115 266.112 
L 7035.3115 266.112 
L 7058.81725 266.112 
L 7058.81725 266.112 
L 7082.323 266.112 
L 7082.323 266.108409 
L 7105.82875 266.108409 
L 7105.82875 266.112 
L 7129.3345 266.112 
L 7129.3345 266.112 
L 7152.84025 266.112 
L 7152.84025 266.108409 
L 7176.346 266.108409 
L 7176.346 266.112 
L 7199.85175 266.112 
L 7199.85175 266.112 
L 7223.3575 266.112 
L 7223.3575 266.112 
L 7246.86325 266.112 
L 7246.86325 266.112 
L 7270.369 266.112 
L 7270.369 266.112 
L 7293.87475 266.112 
L 7293.87475 266.112 
L 7317.3805 266.112 
L 7317.3805 266.112 
L 7340.88625 266.112 
L 7340.88625 266.112 
L 7364.392 266.112 
L 7364.392 266.112 
L 7387.89775 266.112 
L 7387.89775 266.112 
L 7411.4035 266.112 
L 7411.4035 266.112 
L 7434.90925 266.112 
L 7434.90925 266.112 
L 7458.415 266.112 
L 7458.415 266.108409 
L 7481.92075 266.108409 
L 7481.92075 266.112 
L 7505.4265 266.112 
L 7505.4265 266.112 
L 7528.93225 266.112 
L 7528.93225 266.112 
L 7552.438 266.112 
L 7552.438 266.108409 
L 7575.94375 266.108409 
L 7575.94375 266.112 
L 7552.438 266.112 
L 7552.438 266.112 
L 7528.93225 266.112 
L 7528.93225 266.112 
L 7505.4265 266.112 
L 7505.4265 266.112 
L 7481.92075 266.112 
L 7481.92075 266.112 
L 7458.415 266.112 
L 7458.415 266.112 
L 7434.90925 266.112 
L 7434.90925 266.112 
L 7411.4035 266.112 
L 7411.4035 266.112 
L 7387.89775 266.112 
L 7387.89775 266.112 
L 7364.392 266.112 
L 7364.392 266.112 
L 7340.88625 266.112 
L 7340.88625 266.112 
L 7317.3805 266.112 
L 7317.3805 266.112 
L 7293.87475 266.112 
L 7293.87475 266.112 
L 7270.369 266.112 
L 7270.369 266.112 
L 7246.86325 266.112 
L 7246.86325 266.112 
L 7223.3575 266.112 
L 7223.3575 266.112 
L 7199.85175 266.112 
L 7199.85175 266.112 
L 7176.346 266.112 
L 7176.346 266.112 
L 7152.84025 266.112 
L 7152.84025 266.112 
L 7129.3345 266.112 
L 7129.3345 266.112 
L 7105.82875 266.112 
L 7105.82875 266.112 
L 7082.323 266.112 
L 7082.323 266.112 
L 7058.81725 266.112 
L 7058.81725 266.112 
L 7035.3115 266.112 
L 7035.3115 266.112 
L 7011.80575 266.112 
L 7011.80575 266.112 
L 6988.3 266.112 
L 6988.3 266.112 
L 6964.79425 266.112 
L 6964.79425 266.112 
L 6941.2885 266.112 
L 6941.2885 266.112 
L 6917.78275 266.112 
L 6917.78275 266.112 
L 6894.277 266.112 
L 6894.277 266.112 
L 6870.77125 266.112 
L 6870.77125 266.112 
L 6847.2655 266.112 
L 6847.2655 266.112 
L 6823.75975 266.112 
L 6823.75975 266.112 
L 6800.254 266.112 
L 6800.254 266.112 
L 6776.74825 266.112 
L 6776.74825 266.112 
L 6753.2425 266.112 
L 6753.2425 266.112 
L 6729.73675 266.112 
L 6729.73675 266.112 
L 6706.231 266.112 
L 6706.231 266.112 
L 6682.72525 266.112 
L 6682.72525 266.112 
L 6659.2195 266.112 
L 6659.2195 266.112 
L 6635.71375 266.112 
L 6635.71375 266.112 
L 6612.208 266.112 
L 6612.208 266.112 
L 6588.70225 266.112 
L 6588.70225 266.112 
L 6565.1965 266.112 
L 6565.1965 266.112 
L 6541.69075 266.112 
L 6541.69075 266.112 
L 6518.185 266.112 
L 6518.185 266.112 
L 6494.67925 266.112 
L 6494.67925 266.112 
L 6471.1735 266.112 
L 6471.1735 266.112 
L 6447.66775 266.112 
L 6447.66775 266.112 
L 6424.162 266.112 
L 6424.162 266.112 
L 6400.65625 266.112 
L 6400.65625 266.112 
L 6377.1505 266.112 
L 6377.1505 266.112 
L 6353.64475 266.112 
L 6353.64475 266.112 
L 6330.139 266.112 
L 6330.139 266.112 
L 6306.63325 266.112 
L 6306.63325 266.112 
L 6283.1275 266.112 
L 6283.1275 266.112 
L 6259.62175 266.112 
L 6259.62175 266.112 
L 6236.116 266.112 
L 6236.116 266.112 
L 6212.61025 266.112 
L 6212.61025 266.112 
L 6189.1045 266.112 
L 6189.1045 266.112 
L 6165.59875 266.112 
L 6165.59875 266.112 
L 6142.093 266.112 
L 6142.093 266.112 
L 6118.58725 266.112 
L 6118.58725 266.112 
L 6095.0815 266.112 
L 6095.0815 266.112 
L 6071.57575 266.112 
L 6071.57575 266.112 
L 6048.07 266.112 
L 6048.07 266.112 
L 6024.56425 266.112 
L 6024.56425 266.112 
L 6001.0585 266.112 
L 6001.0585 266.112 
L 5977.55275 266.112 
L 5977.55275 266.112 
L 5954.047 266.112 
L 5954.047 266.112 
L 5930.54125 266.112 
L 5930.54125 266.112 
L 5907.0355 266.112 
L 5907.0355 266.112 
L 5883.52975 266.112 
L 5883.52975 266.112 
L 5860.024 266.112 
L 5860.024 266.112 
L 5836.51825 266.112 
L 5836.51825 266.112 
L 5813.0125 266.112 
L 5813.0125 266.112 
L 5789.50675 266.112 
L 5789.50675 266.112 
L 5766.001 266.112 
L 5766.001 266.112 
L 5742.49525 266.112 
L 5742.49525 266.112 
L 5718.9895 266.112 
L 5718.9895 266.112 
L 5695.48375 266.112 
L 5695.48375 266.112 
L 5671.978 266.112 
L 5671.978 266.112 
L 5648.47225 266.112 
L 5648.47225 266.112 
L 5624.9665 266.112 
L 5624.9665 266.112 
L 5601.46075 266.112 
L 5601.46075 266.112 
L 5577.955 266.112 
L 5577.955 266.112 
L 5554.44925 266.112 
L 5554.44925 266.112 
L 5530.9435 266.112 
L 5530.9435 266.112 
L 5507.43775 266.112 
L 5507.43775 266.112 
L 5483.932 266.112 
L 5483.932 266.112 
L 5460.42625 266.112 
L 5460.42625 266.112 
L 5436.9205 266.112 
L 5436.9205 266.112 
L 5413.41475 266.112 
L 5413.41475 266.112 
L 5389.909 266.112 
L 5389.909 266.112 
L 5366.40325 266.112 
L 5366.40325 266.112 
L 5342.8975 266.112 
L 5342.8975 266.112 
L 5319.39175 266.112 
L 5319.39175 266.112 
L 5295.886 266.112 
L 5295.886 266.112 
L 5272.38025 266.112 
L 5272.38025 266.112 
L 5248.8745 266.112 
L 5248.8745 266.112 
L 5225.36875 266.112 
L 5225.36875 266.112 
L 5201.863 266.112 
L 5201.863 266.112 
L 5178.35725 266.112 
L 5178.35725 266.112 
L 5154.8515 266.112 
L 5154.8515 266.112 
L 5131.34575 266.112 
L 5131.34575 266.112 
L 5107.84 266.112 
L 5107.84 266.112 
L 5084.33425 266.112 
L 5084.33425 266.112 
L 5060.8285 266.112 
L 5060.8285 266.112 
L 5037.32275 266.112 
L 5037.32275 266.112 
L 5013.817 266.112 
L 5013.817 266.112 
L 4990.31125 266.112 
L 4990.31125 266.112 
L 4966.8055 266.112 
L 4966.8055 266.112 
L 4943.29975 266.112 
L 4943.29975 266.112 
L 4919.794 266.112 
L 4919.794 266.112 
L 4896.28825 266.112 
L 4896.28825 266.112 
L 4872.7825 266.112 
L 4872.7825 266.112 
L 4849.27675 266.112 
L 4849.27675 266.112 
L 4825.771 266.112 
L 4825.771 266.112 
L 4802.26525 266.112 
L 4802.26525 266.112 
L 4778.7595 266.112 
L 4778.7595 266.112 
L 4755.25375 266.112 
L 4755.25375 266.112 
L 4731.748 266.112 
L 4731.748 266.112 
L 4708.24225 266.112 
L 4708.24225 266.112 
L 4684.7365 266.112 
L 4684.7365 266.112 
L 4661.23075 266.112 
L 4661.23075 266.112 
L 4637.725 266.112 
L 4637.725 266.112 
L 4614.21925 266.112 
L 4614.21925 266.112 
L 4590.7135 266.112 
L 4590.7135 266.112 
L 4567.20775 266.112 
L 4567.20775 266.112 
L 4543.702 266.112 
L 4543.702 266.112 
L 4520.19625 266.112 
L 4520.19625 266.112 
L 4496.6905 266.112 
L 4496.6905 266.112 
L 4473.18475 266.112 
L 4473.18475 266.112 
L 4449.679 266.112 
L 4449.679 266.112 
L 4426.17325 266.112 
L 4426.17325 266.112 
L 4402.6675 266.112 
L 4402.6675 266.112 
L 4379.16175 266.112 
L 4379.16175 266.112 
L 4355.656 266.112 
L 4355.656 266.112 
L 4332.15025 266.112 
L 4332.15025 266.112 
L 4308.6445 266.112 
L 4308.6445 266.112 
L 4285.13875 266.112 
L 4285.13875 266.112 
L 4261.633 266.112 
L 4261.633 266.112 
L 4238.12725 266.112 
L 4238.12725 266.112 
L 4214.6215 266.112 
L 4214.6215 266.112 
L 4191.11575 266.112 
L 4191.11575 266.112 
L 4167.61 266.112 
L 4167.61 266.112 
L 4144.10425 266.112 
L 4144.10425 266.112 
L 4120.5985 266.112 
L 4120.5985 266.112 
L 4097.09275 266.112 
L 4097.09275 266.112 
L 4073.587 266.112 
L 4073.587 266.112 
L 4050.08125 266.112 
L 4050.08125 266.112 
L 4026.5755 266.112 
L 4026.5755 266.112 
L 4003.06975 266.112 
L 4003.06975 266.112 
L 3979.564 266.112 
L 3979.564 266.112 
L 3956.05825 266.112 
L 3956.05825 266.112 
L 3932.5525 266.112 
L 3932.5525 266.112 
L 3909.04675 266.112 
L 3909.04675 266.112 
L 3885.541 266.112 
L 3885.541 266.112 
L 3862.03525 266.112 
L 3862.03525 266.112 
L 3838.5295 266.112 
L 3838.5295 266.112 
L 3815.02375 266.112 
L 3815.02375 266.112 
L 3791.518 266.112 
L 3791.518 266.112 
L 3768.01225 266.112 
L 3768.01225 266.112 
L 3744.5065 266.112 
L 3744.5065 266.112 
L 3721.00075 266.112 
L 3721.00075 266.112 
L 3697.495 266.112 
L 3697.495 266.112 
L 3673.98925 266.112 
L 3673.98925 266.112 
L 3650.4835 266.112 
L 3650.4835 266.112 
L 3626.97775 266.112 
L 3626.97775 266.112 
L 3603.472 266.112 
L 3603.472 266.112 
L 3579.96625 266.112 
L 3579.96625 266.112 
L 3556.4605 266.112 
L 3556.4605 266.112 
L 3532.95475 266.112 
L 3532.95475 266.112 
L 3509.449 266.112 
L 3509.449 266.112 
L 3485.94325 266.112 
L 3485.94325 266.112 
L 3462.4375 266.112 
L 3462.4375 266.112 
L 3438.93175 266.112 
L 3438.93175 266.112 
L 3415.426 266.112 
L 3415.426 266.112 
L 3391.92025 266.112 
L 3391.92025 266.112 
L 3368.4145 266.112 
L 3368.4145 266.112 
L 3344.90875 266.112 
L 3344.90875 266.112 
L 3321.403 266.112 
L 3321.403 266.112 
L 3297.89725 266.112 
L 3297.89725 266.112 
L 3274.3915 266.112 
L 3274.3915 266.112 
L 3250.88575 266.112 
L 3250.88575 266.112 
L 3227.38 266.112 
L 3227.38 266.112 
L 3203.87425 266.112 
L 3203.87425 266.112 
L 3180.3685 266.112 
L 3180.3685 266.112 
L 3156.86275 266.112 
L 3156.86275 266.112 
L 3133.357 266.112 
L 3133.357 266.112 
L 3109.85125 266.112 
L 3109.85125 266.112 
L 3086.3455 266.112 
L 3086.3455 266.112 
L 3062.83975 266.112 
L 3062.83975 266.112 
L 3039.334 266.112 
L 3039.334 266.112 
L 3015.82825 266.112 
L 3015.82825 266.112 
L 2992.3225 266.112 
L 2992.3225 266.112 
L 2968.81675 266.112 
L 2968.81675 266.112 
L 2945.311 266.112 
L 2945.311 266.112 
L 2921.80525 266.112 
L 2921.80525 266.112 
L 2898.2995 266.112 
L 2898.2995 266.112 
L 2874.79375 266.112 
L 2874.79375 266.112 
L 2851.288 266.112 
L 2851.288 266.112 
L 2827.78225 266.112 
L 2827.78225 266.112 
L 2804.2765 266.112 
L 2804.2765 266.112 
L 2780.77075 266.112 
L 2780.77075 266.112 
L 2757.265 266.112 
L 2757.265 266.112 
L 2733.75925 266.112 
L 2733.75925 266.112 
L 2710.2535 266.112 
L 2710.2535 266.112 
L 2686.74775 266.112 
L 2686.74775 266.112 
L 2663.242 266.112 
L 2663.242 266.112 
L 2639.73625 266.112 
L 2639.73625 266.112 
L 2616.2305 266.112 
L 2616.2305 266.112 
L 2592.72475 266.112 
L 2592.72475 266.112 
L 2569.219 266.112 
L 2569.219 266.112 
L 2545.71325 266.112 
L 2545.71325 266.112 
L 2522.2075 266.112 
L 2522.2075 266.112 
L 2498.70175 266.112 
L 2498.70175 266.112 
L 2475.196 266.112 
L 2475.196 266.112 
L 2451.69025 266.112 
L 2451.69025 266.112 
L 2428.1845 266.112 
L 2428.1845 266.112 
L 2404.67875 266.112 
L 2404.67875 266.112 
L 2381.173 266.112 
L 2381.173 266.112 
L 2357.66725 266.112 
L 2357.66725 266.112 
L 2334.1615 266.112 
L 2334.1615 266.112 
L 2310.65575 266.112 
L 2310.65575 266.112 
L 2287.15 266.112 
L 2287.15 266.112 
L 2263.64425 266.112 
L 2263.64425 266.112 
L 2240.1385 266.112 
L 2240.1385 266.112 
L 2216.63275 266.112 
L 2216.63275 266.112 
L 2193.127 266.112 
L 2193.127 266.112 
L 2169.62125 266.112 
L 2169.62125 266.112 
L 2146.1155 266.112 
L 2146.1155 266.112 
L 2122.60975 266.112 
L 2122.60975 266.112 
L 2099.104 266.112 
L 2099.104 266.112 
L 2075.59825 266.112 
L 2075.59825 266.112 
L 2052.0925 266.112 
L 2052.0925 266.112 
L 2028.58675 266.112 
L 2028.58675 266.112 
L 2005.081 266.112 
L 2005.081 266.112 
L 1981.57525 266.112 
L 1981.57525 266.112 
L 1958.0695 266.112 
L 1958.0695 266.112 
L 1934.56375 266.112 
L 1934.56375 266.112 
L 1911.058 266.112 
L 1911.058 266.112 
L 1887.55225 266.112 
L 1887.55225 266.112 
L 1864.0465 266.112 
L 1864.0465 266.112 
L 1840.54075 266.112 
L 1840.54075 266.112 
L 1817.035 266.112 
L 1817.035 266.112 
L 1793.52925 266.112 
L 1793.52925 266.112 
L 1770.0235 266.112 
L 1770.0235 266.112 
L 1746.51775 266.112 
L 1746.51775 266.112 
L 1723.012 266.112 
L 1723.012 266.112 
L 1699.50625 266.112 
L 1699.50625 266.112 
L 1676.0005 266.112 
L 1676.0005 266.112 
L 1652.49475 266.112 
L 1652.49475 266.112 
L 1628.989 266.112 
L 1628.989 266.112 
L 1605.48325 266.112 
L 1605.48325 266.112 
L 1581.9775 266.112 
L 1581.9775 266.112 
L 1558.47175 266.112 
L 1558.47175 266.112 
L 1534.966 266.112 
L 1534.966 266.112 
L 1511.46025 266.112 
L 1511.46025 266.112 
L 1487.9545 266.112 
L 1487.9545 266.112 
L 1464.44875 266.112 
L 1464.44875 266.112 
L 1440.943 266.112 
L 1440.943 266.112 
L 1417.43725 266.112 
L 1417.43725 266.112 
L 1393.9315 266.112 
L 1393.9315 266.112 
L 1370.42575 266.112 
L 1370.42575 266.112 
L 1346.92 266.112 
L 1346.92 266.112 
L 1323.41425 266.112 
L 1323.41425 266.112 
L 1299.9085 266.112 
L 1299.9085 266.112 
L 1276.40275 266.112 
L 1276.40275 266.112 
L 1252.897 266.112 
L 1252.897 266.112 
L 1229.39125 266.112 
L 1229.39125 266.112 
L 1205.8855 266.112 
L 1205.8855 266.112 
L 1182.37975 266.112 
L 1182.37975 266.112 
L 1158.874 266.112 
L 1158.874 266.112 
L 1135.36825 266.112 
L 1135.36825 266.112 
L 1111.8625 266.112 
L 1111.8625 266.112 
L 1088.35675 266.112 
L 1088.35675 266.112 
L 1064.851 266.112 
L 1064.851 266.112 
L 1041.34525 266.112 
L 1041.34525 266.112 
L 1017.8395 266.112 
L 1017.8395 266.112 
L 994.33375 266.112 
L 994.33375 266.112 
L 970.828 266.112 
L 970.828 266.112 
L 947.32225 266.112 
L 947.32225 266.112 
L 923.8165 266.112 
L 923.8165 266.112 
L 900.31075 266.112 
L 900.31075 266.112 
L 876.805 266.112 
L 876.805 266.112 
L 853.29925 266.112 
L 853.29925 266.112 
L 829.7935 266.112 
L 829.7935 266.112 
L 806.28775 266.112 
L 806.28775 266.112 
L 782.782 266.112 
L 782.782 266.112 
L 759.27625 266.112 
L 759.27625 266.112 
L 735.7705 266.112 
L 735.7705 266.112 
L 712.26475 266.112 
L 712.26475 266.112 
L 688.759 266.112 
L 688.759 266.112 
L 665.25325 266.112 
L 665.25325 266.112 
L 641.7475 266.112 
L 641.7475 266.112 
L 618.24175 266.112 
L 618.24175 266.112 
L 594.736 266.112 
L 594.736 266.112 
L 571.23025 266.112 
L 571.23025 266.112 
L 547.7245 266.112 
L 547.7245 266.112 
L 524.21875 266.112 
L 524.21875 266.112 
L 500.713 266.112 
L 500.713 266.112 
L 477.20725 266.112 
L 477.20725 266.112 
L 453.7015 266.112 
L 453.7015 266.112 
L 430.19575 266.112 
L 430.19575 266.112 
L 406.69 266.112 
L 406.69 266.112 
L 383.18425 266.112 
L 383.18425 266.112 
L 359.6785 266.112 
L 359.6785 266.112 
L 336.17275 266.112 
L 336.17275 266.112 
L 312.667 266.112 
L 312.667 266.112 
L 289.16125 266.112 
L 289.16125 266.112 
L 265.6555 266.112 
L 265.6555 266.112 
L 242.14975 266.112 
L 242.14975 266.112 
L 218.644 266.112 
L 218.644 266.112 
L 195.13825 266.112 
L 195.13825 266.112 
L 171.6325 266.112 
L 171.6325 266.112 
L 148.12675 266.112 
L 148.12675 266.112 
L 124.621 266.112 
L 124.621 266.112 
L 101.11525 266.112 
L 101.11525 266.112 
L 77.6095 266.112 
L 77.6095 266.112 
z
" clip-path="url(#p8c064a46d9)" style="fill: #1e90ff; opacity: 0.2"/>
   </g>
   <g id="matplotlib.axis_1">
    <g id="xtick_1">
     <g id="line2d_1">
      <defs>
       <path id="m9664793e19" d="M 0 0 
L 0 3.5 
" style="stroke: #000000; stroke-width: 0.8"/>
      </defs>
      <g>
       <use xlink:href="#m9664793e19" x="42.94375" y="266.112" style="stroke: #000000; stroke-width: 0.8"/>
      </g>
     </g>
     <g id="text_1">
      <!-- 0 -->
      <g transform="translate(39.7625 280.710437)scale(0.1 -0.1)">
       <defs>
        <path id="DejaVuSans-30" d="M 2034 4250 
Q 1547 4250 1301 3770 
Q 1056 3291 1056 2328 
Q 1056 1369 1301 889 
Q 1547 409 2034 409 
Q 2525 409 2770 889 
Q 3016 1369 3016 2328 
Q 3016 3291 2770 3770 
Q 2525 4250 2034 4250 
z
M 2034 4750 
Q 2819 4750 3233 4129 
Q 3647 3509 3647 2328 
Q 3647 1150 3233 529 
Q 2819 -91 2034 -91 
Q 1250 -91 836 529 
Q 422 1150 422 2328 
Q 422 3509 836 4129 
Q 1250 4750 2034 4750 
z
" transform="scale(0.015625)"/>
       </defs>
       <use xlink:href="#DejaVuSans-30"/>
      </g>
     </g>
    </g>
    <g id="xtick_2">
     <g id="line2d_2">
      <g>
       <use xlink:href="#m9664793e19" x="98.74375" y="266.112" style="stroke: #000000; stroke-width: 0.8"/>
      </g>
     </g>
     <g id="text_2">
      <!-- 5 -->
      <g transform="translate(95.5625 280.710437)scale(0.1 -0.1)">
       <defs>
        <path id="DejaVuSans-35" d="M 691 4666 
L 3169 4666 
L 3169 4134 
L 1269 4134 
L 1269 2991 
Q 1406 3038 1543 3061 
Q 1681 3084 1819 3084 
Q 2600 3084 3056 2656 
Q 3513 2228 3513 1497 
Q 3513 744 3044 326 
Q 2575 -91 1722 -91 
Q 1428 -91 1123 -41 
Q 819 9 494 109 
L 494 744 
Q 775 591 1075 516 
Q 1375 441 1709 441 
Q 2250 441 2565 725 
Q 2881 1009 2881 1497 
Q 2881 1984 2565 2268 
Q 2250 2553 1709 2553 
Q 1456 2553 1204 2497 
Q 953 2441 691 2322 
L 691 4666 
z
" transform="scale(0.015625)"/>
       </defs>
       <use xlink:href="#DejaVuSans-35"/>
      </g>
     </g>
    </g>
    <g id="xtick_3">
     <g id="line2d_3">
      <g>
       <use xlink:href="#m9664793e19" x="154.54375" y="266.112" style="stroke: #000000; stroke-width: 0.8"/>
      </g>
     </g>
     <g id="text_3">
      <!-- 10 -->
      <g transform="translate(148.18125 280.710437)scale(0.1 -0.1)">
       <defs>
        <path id="DejaVuSans-31" d="M 794 531 
L 1825 531 
L 1825 4091 
L 703 3866 
L 703 4441 
L 1819 4666 
L 2450 4666 
L 2450 531 
L 3481 531 
L 3481 0 
L 794 0 
L 794 531 
z
" transform="scale(0.015625)"/>
       </defs>
       <use xlink:href="#DejaVuSans-31"/>
       <use xlink:href="#DejaVuSans-30" x="63.623047"/>
      </g>
     </g>
    </g>
    <g id="xtick_4">
     <g id="line2d_4">
      <g>
       <use xlink:href="#m9664793e19" x="210.34375" y="266.112" style="stroke: #000000; stroke-width: 0.8"/>
      </g>
     </g>
     <g id="text_4">
      <!-- 15 -->
      <g transform="translate(203.98125 280.710437)scale(0.1 -0.1)">
       <use xlink:href="#DejaVuSans-31"/>
       <use xlink:href="#DejaVuSans-35" x="63.623047"/>
      </g>
     </g>
    </g>
    <g id="xtick_5">
     <g id="line2d_5">
      <g>
       <use xlink:href="#m9664793e19" x="266.14375" y="266.112" style="stroke: #000000; stroke-width: 0.8"/>
      </g>
     </g>
     <g id="text_5">
      <!-- 20 -->
      <g transform="translate(259.78125 280.710437)scale(0.1 -0.1)">
       <defs>
        <path id="DejaVuSans-32" d="M 1228 531 
L 3431 531 
L 3431 0 
L 469 0 
L 469 531 
Q 828 903 1448 1529 
Q 2069 2156 2228 2338 
Q 2531 2678 2651 2914 
Q 2772 3150 2772 3378 
Q 2772 3750 2511 3984 
Q 2250 4219 1831 4219 
Q 1534 4219 1204 4116 
Q 875 4013 500 3803 
L 500 4441 
Q 881 4594 1212 4672 
Q 1544 4750 1819 4750 
Q 2544 4750 2975 4387 
Q 3406 4025 3406 3419 
Q 3406 3131 3298 2873 
Q 3191 2616 2906 2266 
Q 2828 2175 2409 1742 
Q 1991 1309 1228 531 
z
" transform="scale(0.015625)"/>
       </defs>
       <use xlink:href="#DejaVuSans-32"/>
       <use xlink:href="#DejaVuSans-30" x="63.623047"/>
      </g>
     </g>
    </g>
    <g id="xtick_6">
     <g id="line2d_6">
      <g>
       <use xlink:href="#m9664793e19" x="321.94375" y="266.112" style="stroke: #000000; stroke-width: 0.8"/>
      </g>
     </g>
     <g id="text_6">
      <!-- 25 -->
      <g transform="translate(315.58125 280.710437)scale(0.1 -0.1)">
       <use xlink:href="#DejaVuSans-32"/>
       <use xlink:href="#DejaVuSans-35" x="63.623047"/>
      </g>
     </g>
    </g>
    <g id="xtick_7">
     <g id="line2d_7">
      <g>
       <use xlink:href="#m9664793e19" x="377.74375" y="266.112" style="stroke: #000000; stroke-width: 0.8"/>
      </g>
     </g>
     <g id="text_7">
      <!-- 30 -->
      <g transform="translate(371.38125 280.710437)scale(0.1 -0.1)">
       <defs>
        <path id="DejaVuSans-33" d="M 2597 2516 
Q 3050 2419 3304 2112 
Q 3559 1806 3559 1356 
Q 3559 666 3084 287 
Q 2609 -91 1734 -91 
Q 1441 -91 1130 -33 
Q 819 25 488 141 
L 488 750 
Q 750 597 1062 519 
Q 1375 441 1716 441 
Q 2309 441 2620 675 
Q 2931 909 2931 1356 
Q 2931 1769 2642 2001 
Q 2353 2234 1838 2234 
L 1294 2234 
L 1294 2753 
L 1863 2753 
Q 2328 2753 2575 2939 
Q 2822 3125 2822 3475 
Q 2822 3834 2567 4026 
Q 2313 4219 1838 4219 
Q 1578 4219 1281 4162 
Q 984 4106 628 3988 
L 628 4550 
Q 988 4650 1302 4700 
Q 1616 4750 1894 4750 
Q 2613 4750 3031 4423 
Q 3450 4097 3450 3541 
Q 3450 3153 3228 2886 
Q 3006 2619 2597 2516 
z
" transform="scale(0.015625)"/>
       </defs>
       <use xlink:href="#DejaVuSans-33"/>
       <use xlink:href="#DejaVuSans-30" x="63.623047"/>
      </g>
     </g>
    </g>
    <g id="text_8">
     <!-- Intensity within "hat" mask -->
     <g transform="translate(153.581875 294.388562)scale(0.1 -0.1)">
      <defs>
       <path id="DejaVuSans-49" d="M 628 4666 
L 1259 4666 
L 1259 0 
L 628 0 
L 628 4666 
z
" transform="scale(0.015625)"/>
       <path id="DejaVuSans-6e" d="M 3513 2113 
L 3513 0 
L 2938 0 
L 2938 2094 
Q 2938 2591 2744 2837 
Q 2550 3084 2163 3084 
Q 1697 3084 1428 2787 
Q 1159 2491 1159 1978 
L 1159 0 
L 581 0 
L 581 3500 
L 1159 3500 
L 1159 2956 
Q 1366 3272 1645 3428 
Q 1925 3584 2291 3584 
Q 2894 3584 3203 3211 
Q 3513 2838 3513 2113 
z
" transform="scale(0.015625)"/>
       <path id="DejaVuSans-74" d="M 1172 4494 
L 1172 3500 
L 2356 3500 
L 2356 3053 
L 1172 3053 
L 1172 1153 
Q 1172 725 1289 603 
Q 1406 481 1766 481 
L 2356 481 
L 2356 0 
L 1766 0 
Q 1100 0 847 248 
Q 594 497 594 1153 
L 594 3053 
L 172 3053 
L 172 3500 
L 594 3500 
L 594 4494 
L 1172 4494 
z
" transform="scale(0.015625)"/>
       <path id="DejaVuSans-65" d="M 3597 1894 
L 3597 1613 
L 953 1613 
Q 991 1019 1311 708 
Q 1631 397 2203 397 
Q 2534 397 2845 478 
Q 3156 559 3463 722 
L 3463 178 
Q 3153 47 2828 -22 
Q 2503 -91 2169 -91 
Q 1331 -91 842 396 
Q 353 884 353 1716 
Q 353 2575 817 3079 
Q 1281 3584 2069 3584 
Q 2775 3584 3186 3129 
Q 3597 2675 3597 1894 
z
M 3022 2063 
Q 3016 2534 2758 2815 
Q 2500 3097 2075 3097 
Q 1594 3097 1305 2825 
Q 1016 2553 972 2059 
L 3022 2063 
z
" transform="scale(0.015625)"/>
       <path id="DejaVuSans-73" d="M 2834 3397 
L 2834 2853 
Q 2591 2978 2328 3040 
Q 2066 3103 1784 3103 
Q 1356 3103 1142 2972 
Q 928 2841 928 2578 
Q 928 2378 1081 2264 
Q 1234 2150 1697 2047 
L 1894 2003 
Q 2506 1872 2764 1633 
Q 3022 1394 3022 966 
Q 3022 478 2636 193 
Q 2250 -91 1575 -91 
Q 1294 -91 989 -36 
Q 684 19 347 128 
L 347 722 
Q 666 556 975 473 
Q 1284 391 1588 391 
Q 1994 391 2212 530 
Q 2431 669 2431 922 
Q 2431 1156 2273 1281 
Q 2116 1406 1581 1522 
L 1381 1569 
Q 847 1681 609 1914 
Q 372 2147 372 2553 
Q 372 3047 722 3315 
Q 1072 3584 1716 3584 
Q 2034 3584 2315 3537 
Q 2597 3491 2834 3397 
z
" transform="scale(0.015625)"/>
       <path id="DejaVuSans-69" d="M 603 3500 
L 1178 3500 
L 1178 0 
L 603 0 
L 603 3500 
z
M 603 4863 
L 1178 4863 
L 1178 4134 
L 603 4134 
L 603 4863 
z
" transform="scale(0.015625)"/>
       <path id="DejaVuSans-79" d="M 2059 -325 
Q 1816 -950 1584 -1140 
Q 1353 -1331 966 -1331 
L 506 -1331 
L 506 -850 
L 844 -850 
Q 1081 -850 1212 -737 
Q 1344 -625 1503 -206 
L 1606 56 
L 191 3500 
L 800 3500 
L 1894 763 
L 2988 3500 
L 3597 3500 
L 2059 -325 
z
" transform="scale(0.015625)"/>
       <path id="DejaVuSans-20" transform="scale(0.015625)"/>
       <path id="DejaVuSans-77" d="M 269 3500 
L 844 3500 
L 1563 769 
L 2278 3500 
L 2956 3500 
L 3675 769 
L 4391 3500 
L 4966 3500 
L 4050 0 
L 3372 0 
L 2619 2869 
L 1863 0 
L 1184 0 
L 269 3500 
z
" transform="scale(0.015625)"/>
       <path id="DejaVuSans-68" d="M 3513 2113 
L 3513 0 
L 2938 0 
L 2938 2094 
Q 2938 2591 2744 2837 
Q 2550 3084 2163 3084 
Q 1697 3084 1428 2787 
Q 1159 2491 1159 1978 
L 1159 0 
L 581 0 
L 581 4863 
L 1159 4863 
L 1159 2956 
Q 1366 3272 1645 3428 
Q 1925 3584 2291 3584 
Q 2894 3584 3203 3211 
Q 3513 2838 3513 2113 
z
" transform="scale(0.015625)"/>
       <path id="DejaVuSans-22" d="M 1147 4666 
L 1147 2931 
L 616 2931 
L 616 4666 
L 1147 4666 
z
M 2328 4666 
L 2328 2931 
L 1797 2931 
L 1797 4666 
L 2328 4666 
z
" transform="scale(0.015625)"/>
       <path id="DejaVuSans-61" d="M 2194 1759 
Q 1497 1759 1228 1600 
Q 959 1441 959 1056 
Q 959 750 1161 570 
Q 1363 391 1709 391 
Q 2188 391 2477 730 
Q 2766 1069 2766 1631 
L 2766 1759 
L 2194 1759 
z
M 3341 1997 
L 3341 0 
L 2766 0 
L 2766 531 
Q 2569 213 2275 61 
Q 1981 -91 1556 -91 
Q 1019 -91 701 211 
Q 384 513 384 1019 
Q 384 1609 779 1909 
Q 1175 2209 1959 2209 
L 2766 2209 
L 2766 2266 
Q 2766 2663 2505 2880 
Q 2244 3097 1772 3097 
Q 1472 3097 1187 3025 
Q 903 2953 641 2809 
L 641 3341 
Q 956 3463 1253 3523 
Q 1550 3584 1831 3584 
Q 2591 3584 2966 3190 
Q 3341 2797 3341 1997 
z
" transform="scale(0.015625)"/>
       <path id="DejaVuSans-6d" d="M 3328 2828 
Q 3544 3216 3844 3400 
Q 4144 3584 4550 3584 
Q 5097 3584 5394 3201 
Q 5691 2819 5691 2113 
L 5691 0 
L 5113 0 
L 5113 2094 
Q 5113 2597 4934 2840 
Q 4756 3084 4391 3084 
Q 3944 3084 3684 2787 
Q 3425 2491 3425 1978 
L 3425 0 
L 2847 0 
L 2847 2094 
Q 2847 2600 2669 2842 
Q 2491 3084 2119 3084 
Q 1678 3084 1418 2786 
Q 1159 2488 1159 1978 
L 1159 0 
L 581 0 
L 581 3500 
L 1159 3500 
L 1159 2956 
Q 1356 3278 1631 3431 
Q 1906 3584 2284 3584 
Q 2666 3584 2933 3390 
Q 3200 3197 3328 2828 
z
" transform="scale(0.015625)"/>
       <path id="DejaVuSans-6b" d="M 581 4863 
L 1159 4863 
L 1159 1991 
L 2875 3500 
L 3609 3500 
L 1753 1863 
L 3688 0 
L 2938 0 
L 1159 1709 
L 1159 0 
L 581 0 
L 581 4863 
z
" transform="scale(0.015625)"/>
      </defs>
      <use xlink:href="#DejaVuSans-49"/>
      <use xlink:href="#DejaVuSans-6e" x="29.492188"/>
      <use xlink:href="#DejaVuSans-74" x="92.871094"/>
      <use xlink:href="#DejaVuSans-65" x="132.080078"/>
      <use xlink:href="#DejaVuSans-6e" x="193.603516"/>
      <use xlink:href="#DejaVuSans-73" x="256.982422"/>
      <use xlink:href="#DejaVuSans-69" x="309.082031"/>
      <use xlink:href="#DejaVuSans-74" x="336.865234"/>
      <use xlink:href="#DejaVuSans-79" x="376.074219"/>
      <use xlink:href="#DejaVuSans-20" x="435.253906"/>
      <use xlink:href="#DejaVuSans-77" x="467.041016"/>
      <use xlink:href="#DejaVuSans-69" x="548.828125"/>
      <use xlink:href="#DejaVuSans-74" x="576.611328"/>
      <use xlink:href="#DejaVuSans-68" x="615.820312"/>
      <use xlink:href="#DejaVuSans-69" x="679.199219"/>
      <use xlink:href="#DejaVuSans-6e" x="706.982422"/>
      <use xlink:href="#DejaVuSans-20" x="770.361328"/>
      <use xlink:href="#DejaVuSans-22" x="802.148438"/>
      <use xlink:href="#DejaVuSans-68" x="848.144531"/>
      <use xlink:href="#DejaVuSans-61" x="911.523438"/>
      <use xlink:href="#DejaVuSans-74" x="972.802734"/>
      <use xlink:href="#DejaVuSans-22" x="1012.011719"/>
      <use xlink:href="#DejaVuSans-20" x="1058.007812"/>
      <use xlink:href="#DejaVuSans-6d" x="1089.794922"/>
      <use xlink:href="#DejaVuSans-61" x="1187.207031"/>
      <use xlink:href="#DejaVuSans-73" x="1248.486328"/>
      <use xlink:href="#DejaVuSans-6b" x="1300.585938"/>
     </g>
    </g>
   </g>
   <g id="matplotlib.axis_2">
    <g id="ytick_1">
     <g id="line2d_8">
      <defs>
       <path id="mde8f56f2d4" d="M 0 0 
L -3.5 0 
" style="stroke: #000000; stroke-width: 0.8"/>
      </defs>
      <g>
       <use xlink:href="#mde8f56f2d4" x="42.94375" y="266.112" style="stroke: #000000; stroke-width: 0.8"/>
      </g>
     </g>
     <g id="text_9">
      <!-- 0.00 -->
      <g transform="translate(13.678125 269.911219)scale(0.1 -0.1)">
       <defs>
        <path id="DejaVuSans-2e" d="M 684 794 
L 1344 794 
L 1344 0 
L 684 0 
L 684 794 
z
" transform="scale(0.015625)"/>
       </defs>
       <use xlink:href="#DejaVuSans-30"/>
       <use xlink:href="#DejaVuSans-2e" x="63.623047"/>
       <use xlink:href="#DejaVuSans-30" x="95.410156"/>
       <use xlink:href="#DejaVuSans-30" x="159.033203"/>
      </g>
     </g>
    </g>
    <g id="ytick_2">
     <g id="line2d_9">
      <g>
       <use xlink:href="#mde8f56f2d4" x="42.94375" y="220.735453" style="stroke: #000000; stroke-width: 0.8"/>
      </g>
     </g>
     <g id="text_10">
      <!-- 0.02 -->
      <g transform="translate(13.678125 224.534672)scale(0.1 -0.1)">
       <use xlink:href="#DejaVuSans-30"/>
       <use xlink:href="#DejaVuSans-2e" x="63.623047"/>
       <use xlink:href="#DejaVuSans-30" x="95.410156"/>
       <use xlink:href="#DejaVuSans-32" x="159.033203"/>
      </g>
     </g>
    </g>
    <g id="ytick_3">
     <g id="line2d_10">
      <g>
       <use xlink:href="#mde8f56f2d4" x="42.94375" y="175.358907" style="stroke: #000000; stroke-width: 0.8"/>
      </g>
     </g>
     <g id="text_11">
      <!-- 0.04 -->
      <g transform="translate(13.678125 179.158125)scale(0.1 -0.1)">
       <defs>
        <path id="DejaVuSans-34" d="M 2419 4116 
L 825 1625 
L 2419 1625 
L 2419 4116 
z
M 2253 4666 
L 3047 4666 
L 3047 1625 
L 3713 1625 
L 3713 1100 
L 3047 1100 
L 3047 0 
L 2419 0 
L 2419 1100 
L 313 1100 
L 313 1709 
L 2253 4666 
z
" transform="scale(0.015625)"/>
       </defs>
       <use xlink:href="#DejaVuSans-30"/>
       <use xlink:href="#DejaVuSans-2e" x="63.623047"/>
       <use xlink:href="#DejaVuSans-30" x="95.410156"/>
       <use xlink:href="#DejaVuSans-34" x="159.033203"/>
      </g>
     </g>
    </g>
    <g id="ytick_4">
     <g id="line2d_11">
      <g>
       <use xlink:href="#mde8f56f2d4" x="42.94375" y="129.98236" style="stroke: #000000; stroke-width: 0.8"/>
      </g>
     </g>
     <g id="text_12">
      <!-- 0.06 -->
      <g transform="translate(13.678125 133.781579)scale(0.1 -0.1)">
       <defs>
        <path id="DejaVuSans-36" d="M 2113 2584 
Q 1688 2584 1439 2293 
Q 1191 2003 1191 1497 
Q 1191 994 1439 701 
Q 1688 409 2113 409 
Q 2538 409 2786 701 
Q 3034 994 3034 1497 
Q 3034 2003 2786 2293 
Q 2538 2584 2113 2584 
z
M 3366 4563 
L 3366 3988 
Q 3128 4100 2886 4159 
Q 2644 4219 2406 4219 
Q 1781 4219 1451 3797 
Q 1122 3375 1075 2522 
Q 1259 2794 1537 2939 
Q 1816 3084 2150 3084 
Q 2853 3084 3261 2657 
Q 3669 2231 3669 1497 
Q 3669 778 3244 343 
Q 2819 -91 2113 -91 
Q 1303 -91 875 529 
Q 447 1150 447 2328 
Q 447 3434 972 4092 
Q 1497 4750 2381 4750 
Q 2619 4750 2861 4703 
Q 3103 4656 3366 4563 
z
" transform="scale(0.015625)"/>
       </defs>
       <use xlink:href="#DejaVuSans-30"/>
       <use xlink:href="#DejaVuSans-2e" x="63.623047"/>
       <use xlink:href="#DejaVuSans-30" x="95.410156"/>
       <use xlink:href="#DejaVuSans-36" x="159.033203"/>
      </g>
     </g>
    </g>
    <g id="ytick_5">
     <g id="line2d_12">
      <g>
       <use xlink:href="#mde8f56f2d4" x="42.94375" y="84.605813" style="stroke: #000000; stroke-width: 0.8"/>
      </g>
     </g>
     <g id="text_13">
      <!-- 0.08 -->
      <g transform="translate(13.678125 88.405032)scale(0.1 -0.1)">
       <defs>
        <path id="DejaVuSans-38" d="M 2034 2216 
Q 1584 2216 1326 1975 
Q 1069 1734 1069 1313 
Q 1069 891 1326 650 
Q 1584 409 2034 409 
Q 2484 409 2743 651 
Q 3003 894 3003 1313 
Q 3003 1734 2745 1975 
Q 2488 2216 2034 2216 
z
M 1403 2484 
Q 997 2584 770 2862 
Q 544 3141 544 3541 
Q 544 4100 942 4425 
Q 1341 4750 2034 4750 
Q 2731 4750 3128 4425 
Q 3525 4100 3525 3541 
Q 3525 3141 3298 2862 
Q 3072 2584 2669 2484 
Q 3125 2378 3379 2068 
Q 3634 1759 3634 1313 
Q 3634 634 3220 271 
Q 2806 -91 2034 -91 
Q 1263 -91 848 271 
Q 434 634 434 1313 
Q 434 1759 690 2068 
Q 947 2378 1403 2484 
z
M 1172 3481 
Q 1172 3119 1398 2916 
Q 1625 2713 2034 2713 
Q 2441 2713 2670 2916 
Q 2900 3119 2900 3481 
Q 2900 3844 2670 4047 
Q 2441 4250 2034 4250 
Q 1625 4250 1398 4047 
Q 1172 3844 1172 3481 
z
" transform="scale(0.015625)"/>
       </defs>
       <use xlink:href="#DejaVuSans-30"/>
       <use xlink:href="#DejaVuSans-2e" x="63.623047"/>
       <use xlink:href="#DejaVuSans-30" x="95.410156"/>
       <use xlink:href="#DejaVuSans-38" x="159.033203"/>
      </g>
     </g>
    </g>
    <g id="ytick_6">
     <g id="line2d_13">
      <g>
       <use xlink:href="#mde8f56f2d4" x="42.94375" y="39.229267" style="stroke: #000000; stroke-width: 0.8"/>
      </g>
     </g>
     <g id="text_14">
      <!-- 0.10 -->
      <g transform="translate(13.678125 43.028486)scale(0.1 -0.1)">
       <use xlink:href="#DejaVuSans-30"/>
       <use xlink:href="#DejaVuSans-2e" x="63.623047"/>
       <use xlink:href="#DejaVuSans-31" x="95.410156"/>
       <use xlink:href="#DejaVuSans-30" x="159.033203"/>
      </g>
     </g>
    </g>
    <g id="text_15">
     <!-- Frequency -->
     <g transform="translate(7.598438 158.885687)rotate(-90)scale(0.1 -0.1)">
      <defs>
       <path id="DejaVuSans-46" d="M 628 4666 
L 3309 4666 
L 3309 4134 
L 1259 4134 
L 1259 2759 
L 3109 2759 
L 3109 2228 
L 1259 2228 
L 1259 0 
L 628 0 
L 628 4666 
z
" transform="scale(0.015625)"/>
       <path id="DejaVuSans-72" d="M 2631 2963 
Q 2534 3019 2420 3045 
Q 2306 3072 2169 3072 
Q 1681 3072 1420 2755 
Q 1159 2438 1159 1844 
L 1159 0 
L 581 0 
L 581 3500 
L 1159 3500 
L 1159 2956 
Q 1341 3275 1631 3429 
Q 1922 3584 2338 3584 
Q 2397 3584 2469 3576 
Q 2541 3569 2628 3553 
L 2631 2963 
z
" transform="scale(0.015625)"/>
       <path id="DejaVuSans-71" d="M 947 1747 
Q 947 1113 1208 752 
Q 1469 391 1925 391 
Q 2381 391 2643 752 
Q 2906 1113 2906 1747 
Q 2906 2381 2643 2742 
Q 2381 3103 1925 3103 
Q 1469 3103 1208 2742 
Q 947 2381 947 1747 
z
M 2906 525 
Q 2725 213 2448 61 
Q 2172 -91 1784 -91 
Q 1150 -91 751 415 
Q 353 922 353 1747 
Q 353 2572 751 3078 
Q 1150 3584 1784 3584 
Q 2172 3584 2448 3432 
Q 2725 3281 2906 2969 
L 2906 3500 
L 3481 3500 
L 3481 -1331 
L 2906 -1331 
L 2906 525 
z
" transform="scale(0.015625)"/>
       <path id="DejaVuSans-75" d="M 544 1381 
L 544 3500 
L 1119 3500 
L 1119 1403 
Q 1119 906 1312 657 
Q 1506 409 1894 409 
Q 2359 409 2629 706 
Q 2900 1003 2900 1516 
L 2900 3500 
L 3475 3500 
L 3475 0 
L 2900 0 
L 2900 538 
Q 2691 219 2414 64 
Q 2138 -91 1772 -91 
Q 1169 -91 856 284 
Q 544 659 544 1381 
z
M 1991 3584 
L 1991 3584 
z
" transform="scale(0.015625)"/>
       <path id="DejaVuSans-63" d="M 3122 3366 
L 3122 2828 
Q 2878 2963 2633 3030 
Q 2388 3097 2138 3097 
Q 1578 3097 1268 2742 
Q 959 2388 959 1747 
Q 959 1106 1268 751 
Q 1578 397 2138 397 
Q 2388 397 2633 464 
Q 2878 531 3122 666 
L 3122 134 
Q 2881 22 2623 -34 
Q 2366 -91 2075 -91 
Q 1284 -91 818 406 
Q 353 903 353 1747 
Q 353 2603 823 3093 
Q 1294 3584 2113 3584 
Q 2378 3584 2631 3529 
Q 2884 3475 3122 3366 
z
" transform="scale(0.015625)"/>
      </defs>
      <use xlink:href="#DejaVuSans-46"/>
      <use xlink:href="#DejaVuSans-72" x="50.269531"/>
      <use xlink:href="#DejaVuSans-65" x="89.132812"/>
      <use xlink:href="#DejaVuSans-71" x="150.65625"/>
      <use xlink:href="#DejaVuSans-75" x="214.132812"/>
      <use xlink:href="#DejaVuSans-65" x="277.511719"/>
      <use xlink:href="#DejaVuSans-6e" x="339.035156"/>
      <use xlink:href="#DejaVuSans-63" x="402.414062"/>
      <use xlink:href="#DejaVuSans-79" x="457.394531"/>
     </g>
    </g>
   </g>
   <g id="line2d_14">
    <path d="M 42.94375 258.219848 
L 44.731137 256.32844 
L 46.518525 254.089125 
L 48.305912 251.463414 
L 50.0933 248.414007 
L 51.880687 244.906057 
L 53.668074 240.908532 
L 55.455462 236.395618 
L 57.242849 231.348113 
L 59.387714 224.570184 
L 61.532579 217.004608 
L 63.677444 208.670374 
L 66.179786 198.032194 
L 69.039606 184.800185 
L 72.256903 168.814189 
L 76.90411 144.481915 
L 83.338705 110.871317 
L 86.556002 95.225791 
L 89.415822 82.47044 
L 91.918164 72.417932 
L 94.063029 64.738542 
L 95.850417 59.051891 
L 97.637804 54.043162 
L 99.425191 49.730009 
L 100.855101 46.786077 
L 102.285011 44.292692 
L 103.714921 42.24639 
L 105.144831 40.640502 
L 106.217264 39.719437 
L 107.289696 39.035726 
L 108.362128 38.58357 
L 109.434561 38.356481 
L 110.506993 38.347354 
L 111.579426 38.548536 
L 112.651858 38.951902 
L 113.724291 39.54892 
L 115.1542 40.630814 
L 116.58411 42.019445 
L 118.01402 43.692495 
L 119.801408 46.149266 
L 121.588795 48.970741 
L 123.73366 52.776344 
L 126.236002 57.702762 
L 129.095822 63.841094 
L 132.670597 72.061783 
L 138.032759 85.043105 
L 150.544471 115.538726 
L 155.549155 127.06847 
L 159.838885 136.438895 
L 164.128615 145.265526 
L 168.060867 152.850269 
L 171.993119 159.948897 
L 175.925372 166.578566 
L 179.857624 172.767532 
L 183.789876 178.547683 
L 187.722128 183.949186 
L 191.654381 188.998294 
L 195.94411 194.131245 
L 200.23384 198.89916 
L 204.52357 203.328576 
L 208.8133 207.445495 
L 213.460507 211.581503 
L 218.107714 215.409663 
L 222.754921 218.960418 
L 227.759606 222.512375 
L 233.121768 226.053943 
L 239.198885 229.795293 
L 245.276002 233.284389 
L 251.353119 236.526659 
L 257.430236 239.512763 
L 263.507354 242.243268 
L 269.941948 244.876765 
L 276.376543 247.274087 
L 283.168615 249.565143 
L 289.603209 251.506385 
L 296.037804 253.221912 
L 302.829876 254.801949 
L 309.979426 256.240973 
L 317.84393 257.596646 
L 326.065912 258.792046 
L 335.360327 259.915554 
L 346.442128 261.022697 
L 357.881408 261.949843 
L 369.320687 262.650316 
L 383.977264 263.300807 
L 400.06375 263.851931 
L 400.06375 263.851931 
" clip-path="url(#p8c064a46d9)" style="fill: none; stroke: #1e90ff; stroke-opacity: 0.5; stroke-width: 2; stroke-linecap: square"/>
   </g>
   <g id="line2d_15">
    <path d="M 42.94375 266.112 
L 49.378345 266.015311 
L 50.450777 265.65882 
L 51.165732 265.22196 
L 51.880687 264.599752 
L 52.953119 263.285572 
L 54.025552 261.484658 
L 55.097984 259.17929 
L 56.170417 256.365266 
L 57.600327 251.834255 
L 59.030236 246.448511 
L 60.460146 240.264217 
L 62.247534 231.517498 
L 64.392399 219.735899 
L 66.894741 204.580718 
L 70.112038 183.571887 
L 81.551318 107.339634 
L 84.411137 90.299479 
L 86.91348 76.571509 
L 89.415822 64.082311 
L 91.560687 54.431548 
L 93.705552 45.792314 
L 95.492939 39.379829 
L 97.280327 33.686482 
L 99.067714 28.70927 
L 100.855101 24.43972 
L 102.285011 21.52485 
L 103.714921 19.045809 
L 105.144831 16.992442 
L 106.574741 15.35332 
L 108.004651 14.115921 
L 109.077083 13.443443 
L 110.149516 12.98342 
L 111.221948 12.729683 
L 112.294381 12.675884 
L 113.366813 12.815532 
L 114.439245 13.142019 
L 115.869155 13.856392 
L 117.299065 14.874976 
L 118.728975 16.181628 
L 120.158885 17.760187 
L 121.946273 20.091244 
L 123.73366 22.790878 
L 125.878525 26.473885 
L 128.02339 30.591955 
L 130.525732 35.879772 
L 133.385552 42.467964 
L 136.602849 50.44769 
L 140.535101 60.821368 
L 145.897264 75.680518 
L 163.771137 125.81205 
L 168.775822 138.941691 
L 173.423029 150.520698 
L 177.712759 160.625103 
L 182.002489 170.134765 
L 185.934741 178.314479 
L 189.866993 185.975993 
L 193.799245 193.122978 
L 197.37402 199.181795 
L 200.948795 204.834042 
L 204.52357 210.092983 
L 208.098345 214.973833 
L 211.673119 219.493236 
L 215.247894 223.668816 
L 218.822669 227.518799 
L 222.397444 231.061691 
L 225.972218 234.316016 
L 229.904471 237.584334 
L 233.836723 240.549494 
L 237.768975 243.234575 
L 241.701227 245.66172 
L 245.990957 248.040091 
L 250.280687 250.162411 
L 254.927894 252.200634 
L 259.575101 253.995168 
L 264.579786 255.685169 
L 269.941948 257.249617 
L 275.661588 258.673658 
L 281.738705 259.94855 
L 288.1733 261.071294 
L 295.322849 262.089888 
L 303.187354 262.982571 
L 312.124291 263.766455 
L 322.491137 264.439819 
L 334.645372 264.993003 
L 349.301948 265.427108 
L 368.248255 265.752358 
L 395.059065 265.969778 
L 400.06375 265.992619 
L 400.06375 265.992619 
" clip-path="url(#p8c064a46d9)" style="fill: none; stroke: #ff8c00; stroke-opacity: 0.5; stroke-width: 2; stroke-linecap: square"/>
   </g>
   <g id="line2d_16">
    <path d="M 168.060867 266.112 
L 168.060867 152.850269 
" clip-path="url(#p8c064a46d9)" style="fill: none; stroke: #1e90ff; stroke-width: 1.5; stroke-linecap: square"/>
   </g>
   <g id="patch_4">
    <path d="M 42.94375 266.112 
L 42.94375 -0 
" style="fill: none; stroke: #000000; stroke-width: 0.8; stroke-linejoin: miter; stroke-linecap: square"/>
   </g>
   <g id="patch_5">
    <path d="M 400.06375 266.112 
L 400.06375 -0 
" style="fill: none; stroke: #000000; stroke-width: 0.8; stroke-linejoin: miter; stroke-linecap: square"/>
   </g>
   <g id="patch_6">
    <path d="M 42.94375 266.112 
L 400.06375 266.112 
" style="fill: none; stroke: #000000; stroke-width: 0.8; stroke-linejoin: miter; stroke-linecap: square"/>
   </g>
   <g id="patch_7">
    <path d="M 42.94375 -0 
L 400.06375 -0 
" style="fill: none; stroke: #000000; stroke-width: 0.8; stroke-linejoin: miter; stroke-linecap: square"/>
   </g>
   <g id="legend_1">
    <g id="patch_8">
     <path d="M 301.921562 37.35625 
L 393.06375 37.35625 
Q 395.06375 37.35625 395.06375 35.35625 
L 395.06375 7 
Q 395.06375 5 393.06375 5 
L 301.921562 5 
Q 299.921562 5 299.921562 7 
L 299.921562 35.35625 
Q 299.921562 37.35625 301.921562 37.35625 
z
" style="fill: #ffffff; opacity: 0.8; stroke: #cccccc; stroke-linejoin: miter"/>
    </g>
    <g id="line2d_17">
     <path d="M 303.921562 13.098437 
L 313.921562 13.098437 
L 323.921562 13.098437 
" style="fill: none; stroke: #1e90ff; stroke-opacity: 0.5; stroke-width: 2; stroke-linecap: square"/>
    </g>
    <g id="text_16">
     <!-- background -->
     <g transform="translate(331.921562 16.598437)scale(0.1 -0.1)">
      <defs>
       <path id="DejaVuSans-62" d="M 3116 1747 
Q 3116 2381 2855 2742 
Q 2594 3103 2138 3103 
Q 1681 3103 1420 2742 
Q 1159 2381 1159 1747 
Q 1159 1113 1420 752 
Q 1681 391 2138 391 
Q 2594 391 2855 752 
Q 3116 1113 3116 1747 
z
M 1159 2969 
Q 1341 3281 1617 3432 
Q 1894 3584 2278 3584 
Q 2916 3584 3314 3078 
Q 3713 2572 3713 1747 
Q 3713 922 3314 415 
Q 2916 -91 2278 -91 
Q 1894 -91 1617 61 
Q 1341 213 1159 525 
L 1159 0 
L 581 0 
L 581 4863 
L 1159 4863 
L 1159 2969 
z
" transform="scale(0.015625)"/>
       <path id="DejaVuSans-67" d="M 2906 1791 
Q 2906 2416 2648 2759 
Q 2391 3103 1925 3103 
Q 1463 3103 1205 2759 
Q 947 2416 947 1791 
Q 947 1169 1205 825 
Q 1463 481 1925 481 
Q 2391 481 2648 825 
Q 2906 1169 2906 1791 
z
M 3481 434 
Q 3481 -459 3084 -895 
Q 2688 -1331 1869 -1331 
Q 1566 -1331 1297 -1286 
Q 1028 -1241 775 -1147 
L 775 -588 
Q 1028 -725 1275 -790 
Q 1522 -856 1778 -856 
Q 2344 -856 2625 -561 
Q 2906 -266 2906 331 
L 2906 616 
Q 2728 306 2450 153 
Q 2172 0 1784 0 
Q 1141 0 747 490 
Q 353 981 353 1791 
Q 353 2603 747 3093 
Q 1141 3584 1784 3584 
Q 2172 3584 2450 3431 
Q 2728 3278 2906 2969 
L 2906 3500 
L 3481 3500 
L 3481 434 
z
" transform="scale(0.015625)"/>
       <path id="DejaVuSans-6f" d="M 1959 3097 
Q 1497 3097 1228 2736 
Q 959 2375 959 1747 
Q 959 1119 1226 758 
Q 1494 397 1959 397 
Q 2419 397 2687 759 
Q 2956 1122 2956 1747 
Q 2956 2369 2687 2733 
Q 2419 3097 1959 3097 
z
M 1959 3584 
Q 2709 3584 3137 3096 
Q 3566 2609 3566 1747 
Q 3566 888 3137 398 
Q 2709 -91 1959 -91 
Q 1206 -91 779 398 
Q 353 888 353 1747 
Q 353 2609 779 3096 
Q 1206 3584 1959 3584 
z
" transform="scale(0.015625)"/>
       <path id="DejaVuSans-64" d="M 2906 2969 
L 2906 4863 
L 3481 4863 
L 3481 0 
L 2906 0 
L 2906 525 
Q 2725 213 2448 61 
Q 2172 -91 1784 -91 
Q 1150 -91 751 415 
Q 353 922 353 1747 
Q 353 2572 751 3078 
Q 1150 3584 1784 3584 
Q 2172 3584 2448 3432 
Q 2725 3281 2906 2969 
z
M 947 1747 
Q 947 1113 1208 752 
Q 1469 391 1925 391 
Q 2381 391 2643 752 
Q 2906 1113 2906 1747 
Q 2906 2381 2643 2742 
Q 2381 3103 1925 3103 
Q 1469 3103 1208 2742 
Q 947 2381 947 1747 
z
" transform="scale(0.015625)"/>
      </defs>
      <use xlink:href="#DejaVuSans-62"/>
      <use xlink:href="#DejaVuSans-61" x="63.476562"/>
      <use xlink:href="#DejaVuSans-63" x="124.755859"/>
      <use xlink:href="#DejaVuSans-6b" x="179.736328"/>
      <use xlink:href="#DejaVuSans-67" x="237.646484"/>
      <use xlink:href="#DejaVuSans-72" x="301.123047"/>
      <use xlink:href="#DejaVuSans-6f" x="339.986328"/>
      <use xlink:href="#DejaVuSans-75" x="401.167969"/>
      <use xlink:href="#DejaVuSans-6e" x="464.546875"/>
      <use xlink:href="#DejaVuSans-64" x="527.925781"/>
     </g>
    </g>
    <g id="line2d_18">
     <path d="M 303.921562 27.776562 
L 313.921562 27.776562 
L 323.921562 27.776562 
" style="fill: none; stroke: #ff8c00; stroke-opacity: 0.5; stroke-width: 2; stroke-linecap: square"/>
    </g>
    <g id="text_17">
     <!-- chi2 -->
     <g transform="translate(331.921562 31.276562)scale(0.1 -0.1)">
      <use xlink:href="#DejaVuSans-63"/>
      <use xlink:href="#DejaVuSans-68" x="54.980469"/>
      <use xlink:href="#DejaVuSans-69" x="118.359375"/>
      <use xlink:href="#DejaVuSans-32" x="146.142578"/>
     </g>
    </g>
   </g>
  </g>
 </g>
 <defs>
  <clipPath id="p8c064a46d9">
   <rect x="42.94375" y="-0" width="357.12" height="266.112"/>
  </clipPath>
 </defs>
</svg>
